<svg width="33" height="32" viewBox="0 0 33 32" fill="none" xmlns="http://www.w3.org/2000/svg">
<circle cx="16.1807" cy="16" r="16" fill="#352E40"/>
<path d="M20.6256 8H11.7367C9.28601 8 7.29224 9.99378 7.29224 12.4444V19.5556C7.29224 19.9156 7.34645 20.2595 7.42734 20.5946C7.43979 20.6382 7.44779 20.68 7.46646 20.7218C7.9829 22.6045 9.69134 24 11.7358 24H20.6247C23.0753 24 25.0691 22.0062 25.0691 19.5556V12.4444C25.07 9.99378 23.0762 8 20.6256 8ZM11.7367 9.77778H20.6256C22.0958 9.77778 23.2922 10.9742 23.2922 12.4444V16.5208L20.1074 13.3351C19.4131 12.6426 18.2833 12.6417 17.5891 13.3359L13.5154 17.4097L12.9971 16.8906C12.3029 16.1982 11.1731 16.1973 10.4789 16.8915L9.07179 18.2986V12.4444C9.07001 10.9742 10.2665 9.77778 11.7367 9.77778ZM20.6256 22.2222H11.7367C10.6371 22.2222 9.69135 21.5529 9.28423 20.6L11.7394 18.1484L12.5758 18.9848C13.094 19.5013 13.9367 19.5022 14.454 18.9839L18.8505 14.5929L23.2922 19.0347V19.5556C23.2922 21.0258 22.0958 22.2222 20.6256 22.2222ZM11.2922 13.3333C11.2922 12.5973 11.8896 12 12.6256 12C13.3616 12 13.9589 12.5973 13.9589 13.3333C13.9589 14.0693 13.3616 14.6667 12.6256 14.6667C11.8896 14.6667 11.2922 14.0693 11.2922 13.3333Z" fill="url(#paint0_linear_0_2770)"/>
<defs>
<linearGradient id="paint0_linear_0_2770" x1="7.10989" y1="7.12032" x2="29.9876" y2="15.8678" gradientUnits="userSpaceOnUse">
<stop stop-color="#D4E0DF"/>
<stop offset="0.5" stop-color="#E0CECD"/>
<stop offset="1" stop-color="#EDE3FF"/>
</linearGradient>
</defs>
</svg>
