<svg width="101" height="100" viewBox="0 0 101 100" fill="none" xmlns="http://www.w3.org/2000/svg">
<circle cx="50.1807" cy="50" r="50" fill="#352E40"/>
<path d="M60.1816 32H40.1816C34.6676 32 30.1816 36.486 30.1816 42V58C30.1816 58.81 30.3036 59.5839 30.4856 60.3379C30.5136 60.4359 30.5316 60.53 30.5736 60.624C31.7356 64.86 35.5796 68 40.1796 68H60.1796C65.6936 68 70.1796 63.514 70.1796 58V42C70.1816 36.486 65.6956 32 60.1816 32ZM40.1816 36H60.1816C63.4896 36 66.1816 38.692 66.1816 42V51.1719L59.0157 44.0039C57.4537 42.4459 54.9116 42.4439 53.3496 44.0059L44.1837 53.1719L43.0176 52.0039C41.4556 50.4459 38.9137 50.4439 37.3517 52.0059L34.1856 55.1719V42C34.1816 38.692 36.8736 36 40.1816 36ZM60.1816 64H40.1816C37.7076 64 35.5796 62.4941 34.6636 60.3501L40.1877 54.834L42.0696 56.7158C43.2356 57.8778 45.1317 57.8799 46.2957 56.7139L56.1877 46.834L66.1816 56.8281V58C66.1816 61.308 63.4896 64 60.1816 64ZM39.1816 44C39.1816 42.344 40.5256 41 42.1816 41C43.8376 41 45.1816 42.344 45.1816 44C45.1816 45.656 43.8376 47 42.1816 47C40.5256 47 39.1816 45.656 39.1816 44Z" fill="url(#paint0_linear_0_943)"/>
<defs>
<linearGradient id="paint0_linear_0_943" x1="29.7714" y1="30.0207" x2="81.2463" y2="49.7025" gradientUnits="userSpaceOnUse">
<stop stop-color="#D4E0DF"/>
<stop offset="0.5" stop-color="#E0CECD"/>
<stop offset="1" stop-color="#EDE3FF"/>
</linearGradient>
</defs>
</svg>
