<svg width="73" height="73" viewBox="0 0 73 73" fill="none" xmlns="http://www.w3.org/2000/svg">
<circle cx="36.6294" cy="36.5" r="36" fill="#A69FB0"/>
<circle cx="36.6294" cy="36.5" r="30" fill="#938B9E"/>
<circle cx="36.6294" cy="36.5" r="24" fill="#352E40"/>
<g clip-path="url(#clip0_266_739)">
<path d="M36.6294 39.3571C38.5265 39.3571 40.0465 37.8257 40.0465 35.9285L40.058 29.0714C40.058 27.1743 38.5265 25.6428 36.6294 25.6428C34.7323 25.6428 33.2008 27.1743 33.2008 29.0714V35.9285C33.2008 37.8257 34.7323 39.3571 36.6294 39.3571ZM42.6865 35.9285C42.6865 39.3571 39.7837 41.7571 36.6294 41.7571C33.4751 41.7571 30.5723 39.3571 30.5723 35.9285H28.6294C28.6294 39.8257 31.738 43.0485 35.4865 43.6085V47.3571H37.7723V43.6085C41.5208 43.06 44.6294 39.8371 44.6294 35.9285H42.6865Z" fill="#FAFAFA"/>
</g>
<defs>
<clipPath id="clip0_266_739">
<rect width="32" height="32" fill="white" transform="translate(20.6294 20.5)"/>
</clipPath>
</defs>
</svg>
