<svg width="22" height="25" viewBox="0 0 22 25" fill="none" xmlns="http://www.w3.org/2000/svg">
<path d="M21.2059 16.4215L19.8787 14.2076C19.4311 13.4612 19.1959 12.6091 19.1959 11.7403V8.588C19.1959 3.9632 15.4303 0.200012 10.8019 0.200012C6.17346 0.200012 2.40785 3.9632 2.40785 8.588V11.7403C2.40785 12.6091 2.17145 13.4612 1.72505 14.2064L0.397847 16.4215C-0.120553 17.2855 -0.132543 18.3236 0.363057 19.1996C0.858657 20.0756 1.75746 20.6 2.76546 20.6H7.20065C7.20065 22.5848 8.81585 24.2 10.8007 24.2C12.7855 24.2 14.4007 22.5848 14.4007 20.6H18.8371C19.8451 20.6 20.7438 20.0756 21.2407 19.1996C21.7362 18.3236 21.7231 17.2843 21.2059 16.4215ZM10.8007 21.8C10.1395 21.8 9.60065 21.2624 9.60065 20.6H12.0007C12.0007 21.2624 11.4619 21.8 10.8007 21.8ZM19.1515 18.0176C19.1131 18.086 19.0207 18.2 18.8371 18.2H2.76425C2.58065 18.2 2.48826 18.0848 2.44986 18.0176C2.41146 17.9504 2.36105 17.8124 2.45465 17.6564L3.78186 15.44C4.45146 14.3216 4.80666 13.0423 4.80666 11.7403V8.588C4.80666 5.2856 7.49585 2.60001 10.8007 2.60001C14.1055 2.60001 16.7946 5.2856 16.7946 8.588V11.7403C16.7946 13.0423 17.1487 14.3217 17.8195 15.4413L19.1478 17.6564C19.2402 17.8124 19.1899 17.9492 19.1515 18.0176Z" fill="url(#paint0_radial_0_971)"/>
<defs>
<radialGradient id="paint0_radial_0_971" cx="0" cy="0" r="1" gradientUnits="userSpaceOnUse" gradientTransform="translate(10.8018 12.2004) scale(14.2274 9.50638)">
<stop stop-color="#F6BEB2"/>
<stop offset="0.1308" stop-color="#F1BAB0"/>
<stop offset="0.2912" stop-color="#E2AFAA"/>
<stop offset="0.4671" stop-color="#C99CA0"/>
<stop offset="0.6541" stop-color="#A68193"/>
<stop offset="0.8478" stop-color="#7A6082"/>
<stop offset="1" stop-color="#524172"/>
</radialGradient>
</defs>
</svg>
