<svg width="24" height="24" viewBox="0 0 24 24" fill="none" xmlns="http://www.w3.org/2000/svg">
<g clip-path="url(#clip0_0_1686)">
<path d="M19.2524 3H17.0838H5.80665C4.28858 3 2.98737 3.9759 2.66207 5.49398L1.57773 9.83133C1.36087 10.8072 1.57773 11.7831 2.1199 12.6506C2.7705 13.4096 3.63797 13.8434 4.72231 13.8434H7.75846L6.99942 15.4699C6.45725 16.3373 6.24038 17.4217 6.24038 18.3976C6.24038 19.3735 6.78255 20.241 7.65002 20.5663L8.08376 20.7831C8.40906 21 8.84279 21 9.16809 21C9.8187 21 10.5777 20.6747 11.0115 20.1325L16.5416 13.6265C16.7585 13.8434 16.8669 13.8434 17.0838 13.8434H19.2524C21.0958 13.8434 22.5054 12.4337 22.5054 10.5904V6.25301C22.5054 4.40964 21.0958 3 19.2524 3ZM15.9994 11.1325L9.38496 18.8313C9.27653 18.9398 9.1681 18.9398 9.05966 18.9398L8.62593 18.7229C8.51749 18.7229 8.40906 18.6145 8.40906 18.3976C8.40906 17.747 8.62593 16.988 8.84279 16.4458L10.4693 13.3012C10.6862 12.9759 10.5777 12.5422 10.4693 12.2169C10.2524 11.8916 9.8187 11.6747 9.4934 11.6747H4.72231C4.39701 11.6747 4.07171 11.5663 3.85484 11.241C3.63797 11.0241 3.52954 10.5904 3.63797 10.2651L4.72231 5.92771C4.83074 5.49398 5.26448 5.16867 5.80665 5.16867H15.9994V11.1325ZM20.3368 10.5904C20.3368 11.241 19.903 11.6747 19.2524 11.6747H18.1681V11.4578V5.16867H19.2524C19.903 5.16867 20.3368 5.60241 20.3368 6.25301V10.5904Z" fill="#352E40"/>
</g>
<defs>
<clipPath id="clip0_0_1686">
<rect width="24" height="24" fill="white"/>
</clipPath>
</defs>
</svg>
