<svg width="20" height="20" viewBox="0 0 20 20" fill="none" xmlns="http://www.w3.org/2000/svg">
<rect width="20" height="20" rx="10" fill="url(#paint0_linear_0_1911)"/>
<path fill-rule="evenodd" clip-rule="evenodd" d="M7.48146 6.05005C6.39022 6.05005 5.50146 6.93856 5.50146 8.04504C5.50146 9.44374 6.14569 10.5675 6.96856 11.4101C7.43895 11.8918 7.95794 12.2708 8.42428 12.5448C8.06162 11.9365 7.81647 11.2106 7.81647 10.37C7.81647 9.0624 8.86683 8.00005 10.1715 8.00005C10.7373 8.00005 11.2548 8.20006 11.6599 8.52901C12.0638 8.19949 12.5816 8.00005 13.1465 8.00005C13.2429 8.00005 13.338 8.00583 13.4313 8.01707C13.4164 6.92363 12.5335 6.05005 11.4515 6.05005C10.8061 6.05005 10.2312 6.36001 9.86606 6.84557C9.77133 6.97154 9.62275 7.04546 9.46514 7.04504C9.30752 7.04462 9.15934 6.96992 9.06527 6.84345C8.70622 6.36072 8.13277 6.05005 7.48146 6.05005ZM9.0249 13.9315C8.30649 13.6838 7.19372 13.0719 6.25312 12.1088C5.30474 11.1376 4.50146 9.77634 4.50146 8.04504C4.50146 6.39152 5.8327 5.05005 7.48146 5.05005C8.24587 5.05005 8.94187 5.33635 9.46775 5.80826C9.99504 5.33708 10.6898 5.05005 11.4515 5.05005C13.1002 5.05005 14.4315 6.39152 14.4315 8.04504C14.4315 8.27865 14.4148 8.505 14.3874 8.71863C14.3674 8.87462 14.2752 9.01212 14.1384 9.0898C14.0017 9.16748 13.8363 9.17629 13.6921 9.11358C13.5232 9.04013 13.3409 9.00005 13.1465 9.00005C12.7011 9.00005 12.3072 9.21491 12.0625 9.54361C11.9686 9.66985 11.8206 9.74448 11.6632 9.74504C11.5059 9.7456 11.3574 9.67203 11.2625 9.54646C11.0118 9.21457 10.6162 9.00005 10.1715 9.00005C9.4261 9.00005 8.81647 9.60768 8.81647 10.37C8.81647 11.5183 9.42243 12.4174 10.1467 13.0546C10.2665 13.16 10.3288 13.3163 10.3144 13.4753C10.3 13.6342 10.2106 13.7767 10.0737 13.8588C10.019 13.8916 9.97021 13.9097 9.94427 13.9188L9.92827 13.9243L9.92021 13.927L9.9136 13.9295C9.76595 13.9836 9.60309 14.0013 9.46647 14.0013C9.33156 14.0013 9.17106 13.9841 9.0249 13.9315Z" fill="#352E40"/>
<path fill-rule="evenodd" clip-rule="evenodd" d="M10.172 9C9.42665 9 8.81702 9.60763 8.81702 10.37C8.81702 11.5183 9.42298 12.4174 10.1473 13.0546L10.1474 13.0547C10.6849 13.5279 11.2624 13.8283 11.6116 13.9461C11.613 13.9464 11.6155 13.9469 11.6193 13.9474C11.6296 13.9489 11.6436 13.95 11.6595 13.95C11.6755 13.95 11.6894 13.9489 11.6997 13.9474C11.7035 13.9469 11.706 13.9464 11.7075 13.9461C12.1206 13.8052 12.8353 13.4195 13.4405 12.7995C14.0402 12.185 14.502 11.3738 14.502 10.37C14.502 9.80369 14.1692 9.32526 13.6911 9.11287C13.5226 9.03984 13.3409 9 13.147 9C12.7017 9 12.3078 9.21486 12.0631 9.54357C11.9691 9.66981 11.8212 9.74443 11.6638 9.74499C11.5064 9.74555 11.358 9.67198 11.2631 9.54641C11.0123 9.21453 10.6167 9 10.172 9ZM7.81702 10.37C7.81702 9.06236 8.86738 8 10.172 8C10.7379 8 11.2553 8.20001 11.6605 8.52896C12.0644 8.19945 12.5822 8 13.147 8C13.4826 8 13.8003 8.06992 14.0914 8.19646L14.0944 8.1978L14.0944 8.19781C14.9255 8.56576 15.502 9.39691 15.502 10.37C15.502 11.7062 14.8813 12.755 14.1561 13.498C13.4369 14.2348 12.5851 14.7038 12.0281 14.8934L11.867 14.42L12.0313 14.8922C11.9053 14.9361 11.771 14.95 11.6595 14.95C11.5488 14.95 11.4156 14.9363 11.2903 14.8931C10.8095 14.7306 10.1181 14.3612 9.48663 13.8053C8.63098 13.0525 7.81702 11.9016 7.81702 10.37Z" fill="#352E40"/>
<defs>
<linearGradient id="paint0_linear_0_1911" x1="-0.205147" y1="-1.09959" x2="26.1726" y2="7.97799" gradientUnits="userSpaceOnUse">
<stop stop-color="#D4E0DF"/>
<stop offset="0.5" stop-color="#E0CECD"/>
<stop offset="1" stop-color="#EDE3FF"/>
</linearGradient>
</defs>
</svg>
