<svg width="33" height="32" viewBox="0 0 33 32" fill="none" xmlns="http://www.w3.org/2000/svg">
<circle cx="16.1807" cy="16" r="16" fill="#352E40"/>
<path d="M21.1184 10.6934L20.114 9.1875C19.618 8.4435 18.7886 8 17.8953 8H14.4651C13.5718 8 12.7424 8.4435 12.2464 9.1875L11.242 10.6934C9.02242 10.9396 7.29175 12.8267 7.29175 15.1111V19.5556C7.29175 22.0062 9.28553 24 11.7362 24H20.6251C23.0757 24 25.0695 22.0062 25.0695 19.5556V15.1111C25.0686 12.8276 23.3371 10.9405 21.1184 10.6934ZM23.2909 19.5556C23.2909 21.0258 22.0944 22.2222 20.6242 22.2222H11.7353C10.2651 22.2222 9.06863 21.0258 9.06863 19.5556V15.1111C9.06863 13.6409 10.2651 12.4444 11.7353 12.4444C12.0322 12.4444 12.3095 12.2959 12.4749 12.0488L13.7246 10.1743C13.89 9.92626 14.1664 9.77865 14.4642 9.77865H17.8944C18.1922 9.77865 18.4686 9.92626 18.634 10.1743L19.8837 12.0488C20.0491 12.2959 20.3264 12.4444 20.6233 12.4444C22.0935 12.4444 23.29 13.6409 23.29 15.1111V19.5556H23.2909ZM16.1797 13.3333C14.2189 13.3333 12.6242 14.928 12.6242 16.8889C12.6242 18.8498 14.2189 20.4444 16.1797 20.4444C18.1406 20.4444 19.7353 18.8498 19.7353 16.8889C19.7353 14.928 18.1406 13.3333 16.1797 13.3333ZM16.1797 18.6667C15.1993 18.6667 14.402 17.8693 14.402 16.8889C14.402 15.9084 15.1993 15.1111 16.1797 15.1111C17.1602 15.1111 17.9575 15.9084 17.9575 16.8889C17.9575 17.8693 17.1602 18.6667 16.1797 18.6667ZM22.402 14.2222C22.402 14.7129 22.0037 15.1111 21.5131 15.1111C21.0224 15.1111 20.6242 14.7129 20.6242 14.2222C20.6242 13.7316 21.0224 13.3333 21.5131 13.3333C22.0037 13.3333 22.402 13.7316 22.402 14.2222Z" fill="url(#paint0_linear_35_1681)"/>
<defs>
<linearGradient id="paint0_linear_35_1681" x1="7.1094" y1="7.12032" x2="29.988" y2="15.8685" gradientUnits="userSpaceOnUse">
<stop stop-color="#D4E0DF"/>
<stop offset="0.5" stop-color="#E0CECD"/>
<stop offset="1" stop-color="#EDE3FF"/>
</linearGradient>
</defs>
</svg>
