<svg width="21" height="20" viewBox="0 0 21 20" fill="none" xmlns="http://www.w3.org/2000/svg">
<path d="M20.0019 7.9305C19.1989 3.94637 16.1058 0.852408 12.1206 0.0493807C11.3876 -0.0986243 10.6256 0.089425 10.0396 0.568441C9.45556 1.04746 9.12054 1.75347 9.12054 2.50649V7.9305C9.12054 9.58456 10.4666 10.9306 12.1206 10.9306H17.5448C18.2989 10.9306 19.0049 10.5956 19.483 10.0116C19.961 9.42761 20.151 8.66853 20.0019 7.9305ZM17.9369 8.74352C17.8789 8.81252 17.7528 8.93054 17.5448 8.93054H12.1206C11.5686 8.93054 11.1206 8.48252 11.1206 7.9305V2.50649C11.1206 2.29849 11.2376 2.17239 11.3076 2.11439C11.3646 2.06839 11.4737 1.9994 11.6237 1.9994C11.6557 1.9994 11.6896 2.00238 11.7266 2.01038C14.9188 2.65341 17.3989 5.13245 18.0409 8.32456C18.0819 8.52757 17.9929 8.67452 17.9369 8.74352ZM18.6289 13.2908C17.4059 17.3039 13.7577 20 9.55159 20C4.31341 20 0.0512695 15.7379 0.0512695 10.4997C0.0512695 6.29354 2.74734 2.64551 6.76048 1.42247C7.2895 1.26247 7.8475 1.56049 8.00851 2.08851C8.16851 2.61653 7.87055 3.17535 7.34253 3.33636C4.17842 4.30039 2.05134 7.17957 2.05134 10.4997C2.05134 14.6358 5.41545 17.9999 9.55159 17.9999C12.8717 17.9999 15.7508 15.8728 16.7149 12.7087C16.8769 12.1797 17.4369 11.8847 17.9629 12.0427C18.4909 12.2037 18.7889 12.7628 18.6289 13.2908Z" fill="#A69FB0"/>
</svg>
