<svg width="21" height="20" viewBox="0 0 21 20" fill="none" xmlns="http://www.w3.org/2000/svg">
<g clip-path="url(#clip0_426_9519)">
<path d="M8 9.16699H6.33333V10.8337H8V9.16699ZM11.3333 9.16699H9.66667V10.8337H11.3333V9.16699ZM14.6667 9.16699H13V10.8337H14.6667V9.16699ZM16.3333 3.33366H15.5V1.66699H13.8333V3.33366H7.16667V1.66699H5.5V3.33366H4.66667C3.74167 3.33366 3.00833 4.08366 3.00833 5.00033L3 16.667C3 17.5837 3.74167 18.3337 4.66667 18.3337H16.3333C17.25 18.3337 18 17.5837 18 16.667V5.00033C18 4.08366 17.25 3.33366 16.3333 3.33366ZM16.3333 16.667H4.66667V7.50033H16.3333V16.667Z" fill="#434343"/>
</g>
<defs>
<clipPath id="clip0_426_9519">
<rect width="20" height="20" fill="white" transform="translate(0.5)"/>
</clipPath>
</defs>
</svg>
