<svg width="24" height="25" viewBox="0 0 24 25" fill="none" xmlns="http://www.w3.org/2000/svg">
<circle cx="12" cy="12.5" r="12" fill="#F83838"/>
<path d="M17.4 8.3H15.2646C15.006 8.3 14.7774 8.13561 14.6952 7.89021L14.5056 7.32017C14.3418 6.82997 13.884 6.5 13.3674 6.5H10.632C10.1148 6.5 9.657 6.83003 9.4938 7.32083L9.30421 7.88962C9.22261 8.13502 8.99339 8.3 8.73479 8.3H6.6C6.2688 8.3 6 8.5682 6 8.9C6 9.2318 6.2688 9.5 6.6 9.5H7.239L7.68959 16.2596C7.77299 17.516 8.8248 18.5 10.0842 18.5H13.9164C15.1758 18.5 16.2276 17.5154 16.311 16.2596L16.7616 9.5H17.4C17.7312 9.5 18 9.2318 18 8.9C18 8.5682 17.7312 8.3 17.4 8.3ZM10.6326 7.7L13.368 7.69941L13.5576 8.26938C13.5612 8.28018 13.5666 8.2892 13.5708 8.3H10.4304C10.434 8.2892 10.44 8.2796 10.4436 8.2688L10.6326 7.7ZM15.1134 16.1798C15.0714 16.808 14.5458 17.3 13.9158 17.3H10.0836C9.45422 17.3 8.928 16.808 8.886 16.1798L8.44138 9.5H8.73541C8.79961 9.5 8.86259 9.49159 8.92559 9.48499C8.95139 9.48859 8.97359 9.5 9.00059 9.5H15.0006C15.027 9.5 15.0498 9.48799 15.0756 9.48499C15.1386 9.49159 15.201 9.5 15.2658 9.5H15.5598L15.1134 16.1798ZM13.8 11.9V14.9C13.8 15.2318 13.5312 15.5 13.2 15.5C12.8688 15.5 12.6 15.2318 12.6 14.9V11.9C12.6 11.5682 12.8688 11.3 13.2 11.3C13.5312 11.3 13.8 11.5682 13.8 11.9ZM11.4 11.9V14.9C11.4 15.2318 11.1312 15.5 10.8 15.5C10.4688 15.5 10.2 15.2318 10.2 14.9V11.9C10.2 11.5682 10.4688 11.3 10.8 11.3C11.1312 11.3 11.4 11.5682 11.4 11.9Z" fill="#FAFAFA"/>
</svg>
