<svg width="21" height="20" viewBox="0 0 21 20" fill="none" xmlns="http://www.w3.org/2000/svg">
<path d="M10.6807 0C5.16666 0 0.680664 4.486 0.680664 10C0.680664 15.514 5.16666 20 10.6807 20C16.1947 20 20.6807 15.514 20.6807 10C20.6807 4.486 16.1947 0 10.6807 0ZM10.6807 18C6.26966 18 2.68066 14.411 2.68066 10C2.68066 5.589 6.26966 2 10.6807 2C15.0917 2 18.6807 5.589 18.6807 10C18.6807 14.411 15.0917 18 10.6807 18ZM13.8217 4.43506L9.76666 5.44897C7.97166 5.89697 6.57866 7.29204 6.12866 9.08704L5.11465 13.1421C4.94265 13.8301 5.13966 14.54 5.64166 15.042C6.02366 15.423 6.52667 15.6279 7.04767 15.6279C7.21167 15.6279 7.37665 15.6079 7.54065 15.5659L11.5957 14.552C13.3907 14.104 14.7837 12.7089 15.2337 10.9139L16.2477 6.85901C16.4197 6.17101 16.2227 5.46098 15.7207 4.95898C15.2187 4.45898 14.5087 4.26306 13.8217 4.43506ZM14.3057 6.375L13.2917 10.429C13.0217 11.506 12.1867 12.343 11.1087 12.613L7.05365 13.626L8.06766 9.57202C8.33766 8.49502 9.17267 7.65794 10.2507 7.38794L14.3057 6.375ZM10.6807 8.5C11.5087 8.5 12.1807 9.172 12.1807 10C12.1807 10.828 11.5087 11.5 10.6807 11.5C9.85266 11.5 9.18066 10.828 9.18066 10C9.18066 9.172 9.85266 8.5 10.6807 8.5Z" fill="#A69FB0"/>
</svg>
