<svg width="20" height="20" viewBox="0 0 20 20" fill="none" xmlns="http://www.w3.org/2000/svg">
<rect width="20" height="20" rx="10" fill="url(#paint0_linear_0_1905)"/>
<path d="M10 10.5002C11.3785 10.5002 12.5 9.37874 12.5 8.00024C12.5 6.62174 11.3785 5.50024 10 5.50024C8.6215 5.50024 7.5 6.62174 7.5 8.00024C7.5 9.37874 8.6215 10.5002 10 10.5002ZM10 6.50024C10.827 6.50024 11.5 7.17324 11.5 8.00024C11.5 8.82724 10.827 9.50024 10 9.50024C9.173 9.50024 8.5 8.82724 8.5 8.00024C8.5 7.17324 9.173 6.50024 10 6.50024ZM13.5 12.7003V13.1332C13.5 13.5777 13.3375 14.0038 13.0425 14.3333C12.944 14.4438 12.807 14.4998 12.67 14.4998C12.551 14.4998 12.4315 14.4578 12.3365 14.3723C12.131 14.1878 12.1135 13.8718 12.2975 13.6663C12.4285 13.5203 12.5 13.3307 12.5 13.1332V12.7003C12.5 12.1333 12.125 11.6432 11.5885 11.5082C11.523 11.4927 11.4555 11.4998 11.4015 11.5308C10.5275 12.0173 9.46699 12.0137 8.60449 11.5342C8.54499 11.5002 8.47649 11.4917 8.41299 11.5082C7.87499 11.6432 7.5 12.1333 7.5 12.7003V13.1332C7.5 13.3312 7.57201 13.5203 7.70251 13.6663C7.88651 13.8718 7.86901 14.1878 7.66351 14.3723C7.45851 14.5563 7.14299 14.5393 6.95749 14.3333C6.66249 14.0038 6.5 13.5772 6.5 13.1332V12.7003C6.5 11.6738 7.18599 10.7848 8.16849 10.5388C8.48049 10.4583 8.81899 10.5048 9.09549 10.6638C9.64999 10.9713 10.3435 10.9747 10.91 10.6602C11.1815 10.5042 11.5205 10.4613 11.833 10.5388C12.814 10.7848 13.5 11.6743 13.5 12.7003ZM12.529 5.91925C12.6205 5.65875 12.9075 5.52275 13.1665 5.61475C13.9645 5.89625 14.5 6.65424 14.5 7.50024C14.5 8.06874 14.257 8.61222 13.8335 8.99072C13.7385 9.07622 13.6185 9.11823 13.5 9.11823C13.363 9.11823 13.226 9.06222 13.1275 8.95172C12.9435 8.74622 12.961 8.42973 13.1665 8.24573C13.3785 8.05623 13.5 7.78424 13.5 7.50024C13.5 7.07724 13.232 6.69826 12.8335 6.55676C12.573 6.46526 12.4365 6.17925 12.529 5.91925ZM15 11.4172V11.7783C15 12.0548 14.7765 12.2783 14.5 12.2783C14.2235 12.2783 14 12.0548 14 11.7783V11.4172C14 10.9832 13.7135 10.6078 13.303 10.5048C13.035 10.4373 12.8725 10.1658 12.9395 9.89825C13.007 9.62975 13.281 9.46673 13.546 9.53473C14.4025 9.74973 15 10.5237 15 11.4172ZM6.1665 9.21326C5.743 8.83376 5.5 8.29022 5.5 7.72272C5.5 6.87722 6.036 6.11872 6.8335 5.83722C7.0925 5.74522 7.37951 5.88122 7.47101 6.14172C7.56351 6.40222 7.427 6.68774 7.1665 6.77924C6.768 6.92024 6.5 7.29972 6.5 7.72272C6.5 8.00672 6.6215 8.27826 6.8335 8.46826C7.039 8.65276 7.0565 8.96876 6.8725 9.17426C6.7735 9.28476 6.63701 9.34076 6.49951 9.34076C6.38101 9.34076 6.2615 9.29876 6.1665 9.21326ZM6.69751 10.7267C6.28701 10.8297 6 11.2052 6 11.6392V12.0002C6 12.2767 5.776 12.5002 5.5 12.5002C5.224 12.5002 5 12.2767 5 12.0002V11.6392C5 10.7462 5.59749 9.97171 6.45349 9.75671C6.71999 9.69021 6.993 9.85175 7.06 10.1198C7.1275 10.3878 6.96501 10.6592 6.69751 10.7267Z" fill="#352E40"/>
<defs>
<linearGradient id="paint0_linear_0_1905" x1="-0.205147" y1="-1.09959" x2="26.1726" y2="7.97799" gradientUnits="userSpaceOnUse">
<stop stop-color="#D4E0DF"/>
<stop offset="0.5" stop-color="#E0CECD"/>
<stop offset="1" stop-color="#EDE3FF"/>
</linearGradient>
</defs>
</svg>
