<svg width="25" height="25" viewBox="0 0 25 25" fill="none" xmlns="http://www.w3.org/2000/svg">
<rect x="0.884766" y="0.5" width="24" height="24" rx="12" fill="url(#paint0_linear_0_768)"/>
<path d="M12.8848 13.1003C14.539 13.1003 15.8848 11.7545 15.8848 10.1003C15.8848 8.44608 14.539 7.10028 12.8848 7.10028C11.2306 7.10028 9.88477 8.44608 9.88477 10.1003C9.88477 11.7545 11.2306 13.1003 12.8848 13.1003ZM12.8848 8.30028C13.8772 8.30028 14.6848 9.10788 14.6848 10.1003C14.6848 11.0927 13.8772 11.9003 12.8848 11.9003C11.8924 11.9003 11.0848 11.0927 11.0848 10.1003C11.0848 9.10788 11.8924 8.30028 12.8848 8.30028ZM17.0848 15.7403V16.2599C17.0848 16.7933 16.8898 17.3045 16.5358 17.6999C16.4176 17.8325 16.2532 17.8997 16.0888 17.8997C15.946 17.8997 15.8026 17.8493 15.6885 17.7467C15.4419 17.5253 15.4209 17.1461 15.6417 16.8995C15.7989 16.7243 15.8848 16.4969 15.8848 16.2599V15.7403C15.8848 15.0599 15.4348 14.4719 14.791 14.3099C14.7124 14.2913 14.6314 14.2997 14.5666 14.3369C13.5178 14.9207 12.2452 14.9165 11.2102 14.3411C11.1388 14.3003 11.0566 14.2901 10.9804 14.3099C10.3348 14.4719 9.88477 15.0599 9.88477 15.7403V16.2599C9.88477 16.4975 9.97118 16.7243 10.1278 16.8995C10.3486 17.1461 10.3276 17.5253 10.081 17.7467C9.83498 17.9675 9.45635 17.9471 9.23375 17.6999C8.87975 17.3045 8.68477 16.7927 8.68477 16.2599V15.7403C8.68477 14.5085 9.50795 13.4417 10.687 13.1465C11.0614 13.0499 11.4676 13.1057 11.7994 13.2965C12.4648 13.6655 13.297 13.6696 13.9768 13.2922C14.3026 13.105 14.7094 13.0535 15.0844 13.1465C16.2616 13.4417 17.0848 14.5091 17.0848 15.7403ZM15.9196 7.60309C16.0294 7.29049 16.3738 7.12728 16.6846 7.23768C17.6422 7.57548 18.2848 8.48508 18.2848 9.50028C18.2848 10.1825 17.9932 10.8347 17.485 11.2889C17.371 11.3915 17.227 11.4419 17.0848 11.4419C16.9204 11.4419 16.756 11.3747 16.6378 11.2421C16.417 10.9955 16.438 10.6157 16.6846 10.3949C16.939 10.1675 17.0848 9.84108 17.0848 9.50028C17.0848 8.99268 16.7632 8.5379 16.285 8.3681C15.9724 8.2583 15.8086 7.91509 15.9196 7.60309ZM18.8848 14.2007V14.6339C18.8848 14.9657 18.6166 15.2339 18.2848 15.2339C17.953 15.2339 17.6848 14.9657 17.6848 14.6339V14.2007C17.6848 13.6799 17.341 13.2293 16.8484 13.1057C16.5268 13.0247 16.3318 12.6989 16.4122 12.3779C16.4932 12.0557 16.822 11.8601 17.14 11.9417C18.1678 12.1997 18.8848 13.1285 18.8848 14.2007ZM8.28457 11.5559C7.77637 11.1005 7.48477 10.4482 7.48477 9.76725C7.48477 8.75265 8.12796 7.84245 9.08496 7.50465C9.39576 7.39425 9.74018 7.55746 9.84998 7.87006C9.96098 8.18266 9.79717 8.52527 9.48457 8.63507C9.00637 8.80427 8.68477 9.25965 8.68477 9.76725C8.68477 10.108 8.83056 10.4339 9.08496 10.6619C9.33156 10.8833 9.35256 11.2625 9.13176 11.5091C9.01296 11.6417 8.84918 11.7089 8.68418 11.7089C8.54198 11.7089 8.39857 11.6585 8.28457 11.5559ZM8.92178 13.3721C8.42918 13.4957 8.08477 13.9463 8.08477 14.4671V14.9003C8.08477 15.2321 7.81597 15.5003 7.48477 15.5003C7.15357 15.5003 6.88477 15.2321 6.88477 14.9003V14.4671C6.88477 13.3955 7.60176 12.466 8.62896 12.208C8.94876 12.1282 9.27636 12.3221 9.35676 12.6437C9.43776 12.9653 9.24278 13.2911 8.92178 13.3721Z" fill="#352E40"/>
<defs>
<linearGradient id="paint0_linear_0_768" x1="0.638589" y1="-0.819513" x2="32.2918" y2="10.0736" gradientUnits="userSpaceOnUse">
<stop stop-color="#D4E0DF"/>
<stop offset="0.5" stop-color="#E0CECD"/>
<stop offset="1" stop-color="#EDE3FF"/>
</linearGradient>
</defs>
</svg>
