<svg width="32" height="32" viewBox="0 0 32 32" fill="none" xmlns="http://www.w3.org/2000/svg">
<circle cx="16" cy="16" r="16" fill="url(#paint0_linear_0_306)"/>
<path d="M16 26C13.3478 26 10.8043 24.9464 8.92893 23.0711C7.05357 21.1957 6 18.6522 6 16C6 13.3478 7.05357 10.8043 8.92893 8.92893C10.8043 7.05357 13.3478 6 16 6C18.6522 6 21.1957 7.05357 23.0711 8.92893C24.9464 10.8043 26 13.3478 26 16C26 18.6522 24.9464 21.1957 23.0711 23.0711C21.1957 24.9464 18.6522 26 16 26ZM16 24C18.1217 24 20.1566 23.1571 21.6569 21.6569C23.1571 20.1566 24 18.1217 24 16C24 13.8783 23.1571 11.8434 21.6569 10.3431C20.1566 8.84285 18.1217 8 16 8C13.8783 8 11.8434 8.84285 10.3431 10.3431C8.84285 11.8434 8 13.8783 8 16C8 18.1217 8.84285 20.1566 10.3431 21.6569C11.8434 23.1571 13.8783 24 16 24ZM13 15C12.7348 15 12.4804 14.8946 12.2929 14.7071C12.1054 14.5196 12 14.2652 12 14C12 13.7348 12.1054 13.4804 12.2929 13.2929C12.4804 13.1054 12.7348 13 13 13C13.2652 13 13.5196 13.1054 13.7071 13.2929C13.8946 13.4804 14 13.7348 14 14C14 14.2652 13.8946 14.5196 13.7071 14.7071C13.5196 14.8946 13.2652 15 13 15ZM19 15C18.7348 15 18.4804 14.8946 18.2929 14.7071C18.1054 14.5196 18 14.2652 18 14C18 13.7348 18.1054 13.4804 18.2929 13.2929C18.4804 13.1054 18.7348 13 19 13C19.2652 13 19.5196 13.1054 19.7071 13.2929C19.8946 13.4804 20 13.7348 20 14C20 14.2652 19.8946 14.5196 19.7071 14.7071C19.5196 14.8946 19.2652 15 19 15Z" fill="#352E40"/>
<path fill-rule="evenodd" clip-rule="evenodd" d="M11.7929 17.1048C11.9079 16.9898 12.0639 16.9252 12.2265 16.9252H19.7737C19.9363 16.9252 20.0923 16.9898 20.2073 17.1048C20.3223 17.2198 20.3869 17.3757 20.3869 17.5384C20.3869 18.7018 19.9247 19.8176 19.102 20.6403C18.2793 21.463 17.1635 21.9252 16.0001 21.9252C14.8366 21.9252 13.7208 21.463 12.8981 20.6403C12.0755 19.8176 11.6133 18.7018 11.6133 17.5384C11.6133 17.3757 11.6779 17.2198 11.7929 17.1048ZM12.8997 18.1516C13.0204 18.7614 13.3193 19.3271 13.7653 19.7731C14.358 20.3658 15.1619 20.6988 16.0001 20.6988C16.8383 20.6988 17.6421 20.3658 18.2348 19.7731C18.6808 19.3271 18.9798 18.7614 19.1004 18.1516H12.8997Z" fill="#352E40"/>
<defs>
<linearGradient id="paint0_linear_0_306" x1="-0.328235" y1="-1.75935" x2="41.8761" y2="12.7648" gradientUnits="userSpaceOnUse">
<stop stop-color="#D4E0DF"/>
<stop offset="0.5" stop-color="#E0CECD"/>
<stop offset="1" stop-color="#EDE3FF"/>
</linearGradient>
</defs>
</svg>
