<svg width="32" height="32" viewBox="0 0 32 32" fill="none" xmlns="http://www.w3.org/2000/svg">
<circle cx="16" cy="16" r="16" fill="#352E40"/>
<path d="M15.2001 16.7232V20C15.2001 20.4424 15.5585 20.8 16.0001 20.8C16.4417 20.8 16.8001 20.4424 16.8001 20V16.7232C18.8449 16.3456 20.4001 14.552 20.4001 12.4C20.4001 9.9744 18.4265 8 16.0001 8C13.5737 8 11.6001 9.9744 11.6001 12.4C11.6001 14.552 13.1553 16.3456 15.2001 16.7232ZM16.0001 9.6C17.5441 9.6 18.8001 10.856 18.8001 12.4C18.8001 13.944 17.5441 15.2 16.0001 15.2C14.4561 15.2 13.2001 13.944 13.2001 12.4C13.2001 10.856 14.4561 9.6 16.0001 9.6ZM22.4001 20.8C22.4001 22.9008 19.1809 24 16.0001 24C12.8193 24 9.6001 22.9008 9.6001 20.8C9.6001 19.4384 11.0361 18.3344 13.4417 17.848C13.8753 17.7584 14.2969 18.0408 14.3841 18.4736C14.4721 18.9064 14.1921 19.3288 13.7585 19.4168C12.0129 19.7696 11.2001 20.4512 11.2001 20.8C11.2001 21.364 13.0225 22.4 16.0001 22.4C18.9777 22.4 20.8001 21.364 20.8001 20.8C20.8001 20.4504 19.9865 19.7696 18.2417 19.4168C17.8081 19.3296 17.5281 18.9064 17.6161 18.4736C17.7033 18.04 18.1281 17.7584 18.5585 17.848C20.9641 18.3344 22.4001 19.4384 22.4001 20.8Z" fill="url(#paint0_linear_0_529)"/>
<defs>
<linearGradient id="paint0_linear_0_529" x1="9.4688" y1="7.12032" x2="27.0196" y2="11.9522" gradientUnits="userSpaceOnUse">
<stop stop-color="#D4E0DF"/>
<stop offset="0.5" stop-color="#E0CECD"/>
<stop offset="1" stop-color="#EDE3FF"/>
</linearGradient>
</defs>
</svg>
