<svg width="32" height="32" viewBox="0 0 32 32" fill="none" xmlns="http://www.w3.org/2000/svg">
<circle cx="16" cy="16" r="16" fill="url(#paint0_linear_0_313)"/>
<path d="M16 26C13.3478 26 10.8043 24.9464 8.92893 23.0711C7.05357 21.1957 6 18.6522 6 16C6 13.3478 7.05357 10.8043 8.92893 8.92893C10.8043 7.05357 13.3478 6 16 6C18.6522 6 21.1957 7.05357 23.0711 8.92893C24.9464 10.8043 26 13.3478 26 16C26 18.6522 24.9464 21.1957 23.0711 23.0711C21.1957 24.9464 18.6522 26 16 26ZM16 24C18.1217 24 20.1566 23.1571 21.6569 21.6569C23.1571 20.1566 24 18.1217 24 16C24 13.8783 23.1571 11.8434 21.6569 10.3431C20.1566 8.84285 18.1217 8 16 8C13.8783 8 11.8434 8.84285 10.3431 10.3431C8.84285 11.8434 8 13.8783 8 16C8 18.1217 8.84285 20.1566 10.3431 21.6569C11.8434 23.1571 13.8783 24 16 24ZM12.46 19.54C12.2717 19.3517 12.1659 19.0963 12.1659 18.83C12.1659 18.5637 12.2717 18.3083 12.46 18.12C12.6483 17.9317 12.9037 17.8259 13.17 17.8259C13.4363 17.8259 13.6917 17.9317 13.88 18.12C14.4425 18.6818 15.205 18.9974 16 18.9974C16.795 18.9974 17.5575 18.6818 18.12 18.12C18.3083 17.9317 18.5637 17.8259 18.83 17.8259C19.0963 17.8259 19.3517 17.9317 19.54 18.12C19.7283 18.3083 19.8341 18.5637 19.8341 18.83C19.8341 19.0963 19.7283 19.3517 19.54 19.54C19.0755 20.0056 18.5238 20.3751 17.9163 20.6271C17.3089 20.8792 16.6577 21.0089 16 21.0089C15.3423 21.0089 14.6911 20.8792 14.0837 20.6271C13.4762 20.3751 12.9245 20.0056 12.46 19.54ZM13 15C12.7348 15 12.4804 14.8946 12.2929 14.7071C12.1054 14.5196 12 14.2652 12 14C12 13.7348 12.1054 13.4804 12.2929 13.2929C12.4804 13.1054 12.7348 13 13 13C13.2652 13 13.5196 13.1054 13.7071 13.2929C13.8946 13.4804 14 13.7348 14 14C14 14.2652 13.8946 14.5196 13.7071 14.7071C13.5196 14.8946 13.2652 15 13 15ZM19 15C18.7348 15 18.4804 14.8946 18.2929 14.7071C18.1054 14.5196 18 14.2652 18 14C18 13.7348 18.1054 13.4804 18.2929 13.2929C18.4804 13.1054 18.7348 13 19 13C19.2652 13 19.5196 13.1054 19.7071 13.2929C19.8946 13.4804 20 13.7348 20 14C20 14.2652 19.8946 14.5196 19.7071 14.7071C19.5196 14.8946 19.2652 15 19 15Z" fill="#352E40"/>
<defs>
<linearGradient id="paint0_linear_0_313" x1="-0.328235" y1="-1.75935" x2="41.8761" y2="12.7648" gradientUnits="userSpaceOnUse">
<stop stop-color="#D4E0DF"/>
<stop offset="0.5" stop-color="#E0CECD"/>
<stop offset="1" stop-color="#EDE3FF"/>
</linearGradient>
</defs>
</svg>
