<svg width="21" height="20" viewBox="0 0 21 20" fill="none" xmlns="http://www.w3.org/2000/svg">
<path d="M18.1863 5.11406L13.1861 1.09503C11.3701 -0.36501 8.73302 -0.36501 6.91598 1.09503L1.91584 5.11406C0.730805 6.06709 0.0507812 7.48622 0.0507812 9.00626V14.9984C0.0507812 17.7524 2.29384 19.9925 5.05092 19.9925H8.051V14.9974C8.051 13.8964 8.94802 13.0023 10.0511 13.0023C11.1541 13.0023 12.0511 13.8974 12.0511 14.9974V19.9925H15.0512C17.8083 19.9925 20.0513 17.7524 20.0513 14.9984V9.00626C20.0513 7.48622 19.3713 6.06709 18.1863 5.11406ZM18.0513 14.9984C18.0513 16.6494 16.7052 17.9925 15.0512 17.9925H14.0512V14.9974C14.0512 12.7943 12.2571 11.0023 10.0511 11.0023C7.845 11.0023 6.05095 12.7943 6.05095 14.9974V17.9925H5.05092C3.39687 17.9925 2.05084 16.6494 2.05084 14.9984V9.00626C2.05084 8.09523 2.45884 7.2442 3.16886 6.67319L8.169 2.65403C9.26003 1.77801 10.8431 1.77801 11.9331 2.65403L16.9332 6.67319C17.6443 7.2442 18.0523 8.09523 18.0523 9.00626V14.9984H18.0513Z" fill="#A69FB0"/>
</svg>
