<svg width="48" height="48" viewBox="0 0 48 48" fill="none" xmlns="http://www.w3.org/2000/svg">
<circle cx="24" cy="24" r="24" fill="url(#paint0_linear_0_1611)"/>
<path d="M30.0009 13.1995H18.0003C14.6917 13.1995 12 15.8912 12 19.1998V28.8002C12 29.2863 12.0732 29.7506 12.1824 30.2031C12.1992 30.2619 12.21 30.3183 12.2352 30.3747C12.9324 32.9165 15.239 34.8005 17.9991 34.8005H29.9997C33.3083 34.8005 36 32.1088 36 28.8002V19.1998C36.0012 15.8912 33.3095 13.1995 30.0009 13.1995ZM18.0003 15.5996H30.0009C31.9858 15.5996 33.6011 17.2149 33.6011 19.1998V24.7032L29.3013 20.4022C28.364 19.4673 26.8387 19.4661 25.9015 20.4033L20.4016 25.9032L19.702 25.2024C18.7647 24.2676 17.2395 24.2663 16.3022 25.2036L14.4025 27.1033V19.1998C14.4001 17.2149 16.0154 15.5996 18.0003 15.5996ZM30.0009 32.4004H18.0003C16.5158 32.4004 15.239 31.4968 14.6893 30.2104L18.0039 26.9005L19.1332 28.0297C19.8328 28.7269 20.9705 28.7282 21.6689 28.0285L27.6044 22.1003L33.6011 28.0971V28.8002C33.6011 30.7851 31.9858 32.4004 30.0009 32.4004ZM17.4003 20.3998C17.4003 19.4062 18.2067 18.5997 19.2004 18.5997C20.194 18.5997 21.0005 19.4062 21.0005 20.3998C21.0005 21.3935 20.194 22.1999 19.2004 22.1999C18.2067 22.1999 17.4003 21.3935 17.4003 20.3998Z" fill="#352E40"/>
<defs>
<linearGradient id="paint0_linear_0_1611" x1="-0.492353" y1="-2.63903" x2="62.8142" y2="19.1472" gradientUnits="userSpaceOnUse">
<stop stop-color="#D4E0DF"/>
<stop offset="0.5" stop-color="#E0CECD"/>
<stop offset="1" stop-color="#EDE3FF"/>
</linearGradient>
</defs>
</svg>
