<svg width="24" height="25" viewBox="0 0 24 25" fill="none" xmlns="http://www.w3.org/2000/svg">
<path d="M23.3079 8.20218C21.8272 3.97713 18.153 0.955684 13.7167 0.319708C12.596 0.160114 11.4056 0.160114 10.2812 0.319708C5.84737 0.955684 2.17314 3.97721 0.695994 8.19265C0.234012 9.46941 0 10.8181 0 12.2005C0 13.5828 0.233978 14.9304 0.691161 16.1976C2.17191 20.4226 5.84614 23.4441 10.2824 24.08C10.8428 24.1592 11.42 24.2 11.9995 24.2C12.5791 24.2 13.1563 24.1604 13.7179 24.08C18.1517 23.4441 21.826 20.4225 23.3031 16.2071C23.7651 14.9303 23.9991 13.5816 23.9991 12.1993C23.9991 10.8169 23.7651 9.46933 23.3079 8.20218ZM21.5992 12.1993C21.5992 13.0189 21.496 13.8216 21.2908 14.6004H17.8373C17.9333 13.8036 17.9993 13.0033 17.9993 12.1993C17.9993 11.3953 17.9333 10.5949 17.8373 9.80055H21.292C21.496 10.5757 21.5992 11.3785 21.5992 12.1993ZM8.58447 14.6004C8.47527 13.806 8.39968 13.0045 8.39968 12.1993C8.39968 11.3977 8.47407 10.5973 8.58447 9.80055H15.4158C15.525 10.5949 15.6006 11.3953 15.6006 12.1993C15.6006 13.0021 15.5262 13.8024 15.4158 14.6004H8.58447ZM2.70708 14.6004C2.50308 13.824 2.39991 13.0201 2.39991 12.1993C2.39991 11.3809 2.50308 10.5781 2.70708 9.80055H6.16178C6.06578 10.5961 5.99977 11.3965 5.99977 12.1993C5.99977 13.0045 6.06578 13.806 6.16178 14.6004H2.70708ZM20.29 7.40064H17.3969C17.0753 6.04349 16.6158 4.73555 16.0206 3.4816C17.8133 4.30477 19.2989 5.67151 20.29 7.40064ZM12.8419 2.65839C13.7743 4.13793 14.4775 5.72191 14.9334 7.40064H9.06565C9.52043 5.72671 10.2236 4.14033 11.1572 2.65839C11.4379 2.63439 11.7152 2.59965 11.9995 2.59965C12.2851 2.59965 12.5624 2.63439 12.8419 2.65839ZM7.97849 3.48043C7.38211 4.73678 6.92251 6.04589 6.60092 7.40064H3.70665C4.69781 5.67271 6.18455 4.3048 7.97849 3.48043ZM3.71024 17.0003H6.60217C6.92376 18.3562 7.38331 19.6642 7.97849 20.917C6.18695 20.095 4.7026 18.7282 3.71024 17.0003ZM11.156 21.7402C10.2248 20.2606 9.52163 18.6766 9.06565 17.0003H14.9322C14.4774 18.6742 13.7743 20.2594 12.8419 21.7402C12.2804 21.787 11.7164 21.787 11.156 21.7402ZM16.0218 20.9182C16.617 19.663 17.0766 18.355 17.3982 17.0003H20.2912C19.3 18.727 17.8145 20.0938 16.0218 20.9182Z" fill="url(#paint0_radial_0_989)"/>
<defs>
<radialGradient id="paint0_radial_0_989" cx="0" cy="0" r="1" gradientUnits="userSpaceOnUse" gradientTransform="translate(11.9997 12.2004) scale(15.8052 9.50638)">
<stop stop-color="#F6BEB2"/>
<stop offset="0.1308" stop-color="#F1BAB0"/>
<stop offset="0.2912" stop-color="#E2AFAA"/>
<stop offset="0.4671" stop-color="#C99CA0"/>
<stop offset="0.6541" stop-color="#A68193"/>
<stop offset="0.8478" stop-color="#7A6082"/>
<stop offset="1" stop-color="#524172"/>
</radialGradient>
</defs>
</svg>
