<svg width="22" height="25" viewBox="0 0 22 25" fill="none" xmlns="http://www.w3.org/2000/svg">
<path d="M12 23C12 23.6636 11.4624 24.2 10.8 24.2H6C2.6916 24.2 0 21.5084 0 18.2V6.19995C0 2.89155 2.6916 0.199951 6 0.199951H10.8C11.4624 0.199951 12 0.736351 12 1.39995C12 2.06355 11.4624 2.59995 10.8 2.59995H6C4.0152 2.59995 2.4 4.21515 2.4 6.19995V18.2C2.4 20.1848 4.0152 21.8 6 21.8H10.8C11.4624 21.8 12 22.3364 12 23ZM21.5064 12.6583C21.6276 12.3655 21.6276 12.0344 21.5064 11.7416C21.4452 11.594 21.3576 11.4619 21.246 11.3503L16.4472 6.55151C15.978 6.08231 15.2196 6.08231 14.7504 6.55151C14.2812 7.02071 14.2812 7.77919 14.7504 8.24839L17.502 11H8.39879C7.73639 11 7.19879 11.5364 7.19879 12.2C7.19879 12.8636 7.73639 13.4 8.39879 13.4H17.502L14.7504 16.1515C14.2812 16.6207 14.2812 17.3792 14.7504 17.8484C14.9844 18.0824 15.2916 18.2 15.5988 18.2C15.906 18.2 16.2132 18.0824 16.4472 17.8484L21.246 13.0496C21.3576 12.938 21.4464 12.8059 21.5064 12.6583Z" fill="url(#paint0_radial_0_997)"/>
<defs>
<radialGradient id="paint0_radial_0_997" cx="0" cy="0" r="1" gradientUnits="userSpaceOnUse" gradientTransform="translate(10.7988 12.2003) scale(14.2234 9.50638)">
<stop stop-color="#F6BEB2"/>
<stop offset="0.1308" stop-color="#F1BAB0"/>
<stop offset="0.2912" stop-color="#E2AFAA"/>
<stop offset="0.4671" stop-color="#C99CA0"/>
<stop offset="0.6541" stop-color="#A68193"/>
<stop offset="0.8478" stop-color="#7A6082"/>
<stop offset="1" stop-color="#524172"/>
</radialGradient>
</defs>
</svg>
