<svg width="33" height="32" viewBox="0 0 33 32" fill="none" xmlns="http://www.w3.org/2000/svg">
<circle cx="16.1807" cy="16" r="16" fill="#352E40"/>
<path d="M23.1729 10.053C22.0824 8.72925 20.5649 8 18.8992 8C17.9392 8 17.0104 8.22486 16.1809 8.65265C15.3523 8.22486 14.4226 8 13.4626 8C11.7969 8 10.2794 8.72925 9.18889 10.053C8.00742 11.4871 7.51733 13.445 7.87691 15.2909C8.71396 19.5814 13.0575 22.5633 14.8866 23.6463C15.2858 23.8812 15.7329 24 16.1801 24C16.6272 24 17.0752 23.8812 17.4744 23.6455C19.3034 22.5634 23.647 19.5814 24.484 15.2909C24.8445 13.445 24.3544 11.4871 23.1729 10.053ZM22.831 14.9676C22.1245 18.5887 18.25 21.2287 16.6171 22.1954C16.3485 22.3537 16.0133 22.3537 15.7447 22.1954C14.1118 21.2287 10.2365 18.5887 9.53079 14.9676C9.26637 13.611 9.62427 12.1735 10.49 11.1234C11.2546 10.1945 12.3106 9.68421 13.4634 9.68421C14.2803 9.68421 15.0634 9.90905 15.7279 10.3335C16.0041 10.5095 16.3577 10.5095 16.6339 10.3335C17.2992 9.90905 18.0815 9.68421 18.8984 9.68421C20.0521 9.68421 21.1081 10.1945 21.8718 11.1234C22.7375 12.1735 23.0963 13.611 22.831 14.9676Z" fill="url(#paint0_linear_0_2758)"/>
<defs>
<linearGradient id="paint0_linear_0_2758" x1="7.58851" y1="7.12032" x2="29.5469" y2="15.0733" gradientUnits="userSpaceOnUse">
<stop stop-color="#D4E0DF"/>
<stop offset="0.5" stop-color="#E0CECD"/>
<stop offset="1" stop-color="#EDE3FF"/>
</linearGradient>
</defs>
</svg>
