<svg width="24" height="20" viewBox="0 0 24 20" fill="none" xmlns="http://www.w3.org/2000/svg">
<path d="M22.8 8.4H24V6C24 2.6916 21.3084 0 18 0H6C2.6916 0 0 2.6916 0 6V8.4H1.2C1.8612 8.4 2.4 8.9376 2.4 9.6C2.4 10.2624 1.8612 10.8 1.2 10.8H0V13.2C0 16.5084 2.6916 19.2 6 19.2H18C21.3084 19.2 24 16.5084 24 13.2V10.8H22.8C22.1376 10.8 21.6 10.2624 21.6 9.6C21.6 8.9376 22.1376 8.4 22.8 8.4ZM21.6 6.20522C20.2032 6.70082 19.2 8.0352 19.2 9.6C19.2 11.1648 20.2032 12.4992 21.6 12.9948V13.2C21.6 15.1848 19.9848 16.8 18 16.8H16.8V14.4C16.8 13.7364 16.2636 13.2 15.6 13.2C14.9364 13.2 14.4 13.7364 14.4 14.4V16.8H6C4.0152 16.8 2.4 15.1848 2.4 13.2V12.9948C3.7968 12.4992 4.8 11.1648 4.8 9.6C4.8 8.0352 3.7968 6.70082 2.4 6.20522V6C2.4 4.0152 4.0152 2.4 6 2.4H14.4V4.8C14.4 5.4636 14.9364 6 15.6 6C16.2636 6 16.8 5.4636 16.8 4.8V2.4H18C19.9848 2.4 21.6 4.0152 21.6 6V6.20522ZM16.8 8.4V10.8C16.8 11.4636 16.2636 12 15.6 12C14.9364 12 14.4 11.4636 14.4 10.8V8.4C14.4 7.7364 14.9364 7.2 15.6 7.2C16.2636 7.2 16.8 7.7364 16.8 8.4Z" fill="url(#paint0_radial_0_965)"/>
<defs>
<radialGradient id="paint0_radial_0_965" cx="0" cy="0" r="1" gradientUnits="userSpaceOnUse" gradientTransform="translate(12.0002 9.60028) scale(15.8058 7.6051)">
<stop stop-color="#F6BEB2"/>
<stop offset="0.1308" stop-color="#F1BAB0"/>
<stop offset="0.2912" stop-color="#E2AFAA"/>
<stop offset="0.4671" stop-color="#C99CA0"/>
<stop offset="0.6541" stop-color="#A68193"/>
<stop offset="0.8478" stop-color="#7A6082"/>
<stop offset="1" stop-color="#524172"/>
</radialGradient>
</defs>
</svg>
