<svg width="32" height="32" viewBox="0 0 32 32" fill="none" xmlns="http://www.w3.org/2000/svg">
<circle cx="16" cy="16" r="16" fill="url(#paint0_linear_0_318)"/>
<path fill-rule="evenodd" clip-rule="evenodd" d="M16 8C11.5817 8 8 11.5817 8 16C8 20.4183 11.5817 24 16 24C20.4183 24 24 20.4183 24 16C24 11.5817 20.4183 8 16 8ZM6 16C6 10.4772 10.4772 6 16 6C21.5228 6 26 10.4772 26 16C26 21.5228 21.5228 26 16 26C10.4772 26 6 21.5228 6 16Z" fill="#352E40"/>
<path fill-rule="evenodd" clip-rule="evenodd" d="M12 14C12 13.4477 12.4477 13 13 13H13.01C13.5623 13 14.01 13.4477 14.01 14C14.01 14.5523 13.5623 15 13.01 15H13C12.4477 15 12 14.5523 12 14Z" fill="#352E40"/>
<path fill-rule="evenodd" clip-rule="evenodd" d="M18 14C18 13.4477 18.4477 13 19 13H19.01C19.5623 13 20.01 13.4477 20.01 14C20.01 14.5523 19.5623 15 19.01 15H19C18.4477 15 18 14.5523 18 14Z" fill="#352E40"/>
<defs>
<linearGradient id="paint0_linear_0_318" x1="-0.328235" y1="-1.75935" x2="41.8761" y2="12.7648" gradientUnits="userSpaceOnUse">
<stop stop-color="#D4E0DF"/>
<stop offset="0.5" stop-color="#E0CECD"/>
<stop offset="1" stop-color="#EDE3FF"/>
</linearGradient>
</defs>
</svg>
