<svg width="33" height="33" viewBox="0 0 33 33" fill="none" xmlns="http://www.w3.org/2000/svg">
<rect x="0.55127" y="0.5" width="32" height="32" rx="8" fill="url(#paint0_linear_0_1083)"/>
<path fill-rule="evenodd" clip-rule="evenodd" d="M16.1246 8.704C16.1243 8.7042 16.125 8.7038 16.1246 8.704L10.4488 11.7642C10.4152 11.7824 10.3706 11.8307 10.3706 11.9301C10.3706 12.0296 10.4152 12.0779 10.4488 12.096L16.1246 15.1562C16.1243 15.156 16.125 15.1564 16.1246 15.1562C16.395 15.3003 16.7062 15.3009 16.9766 15.1568C16.9762 15.157 16.9769 15.1566 16.9766 15.1568L22.6534 12.096C22.687 12.0778 22.7317 12.0294 22.7317 11.9301C22.7317 11.8308 22.6872 11.7825 22.6536 11.7643L16.9776 8.704C16.9772 8.7038 16.978 8.7042 16.9776 8.704C16.7073 8.55998 16.395 8.55998 16.1246 8.704ZM15.3726 7.29699C16.1135 6.901 16.9888 6.901 17.7296 7.29699L17.7322 7.29836L23.4107 10.3601C24.6323 11.0191 24.6324 12.8411 23.4109 13.5001L17.7322 16.5619L17.7296 16.5633C16.9888 16.9592 16.1135 16.9592 15.3726 16.5633L15.3701 16.5619L9.69151 13.5002C8.46997 12.8412 8.46981 11.0191 9.69134 10.3602L15.3726 7.29699ZM8.8759 15.5787C8.75411 15.518 8.62614 15.6055 8.62614 15.7289V20.7183C8.62614 21.1452 8.87098 21.5438 9.26036 21.7418C9.26086 21.7421 9.26137 21.7423 9.26188 21.7426L14.5354 24.3837C14.5352 24.3836 14.5355 24.3838 14.5354 24.3837C14.6571 24.4442 14.7853 24.3569 14.7853 24.2336V19.2442C14.7853 18.8173 14.5405 18.4186 14.151 18.2206C14.1506 18.2204 14.1501 18.2201 14.1496 18.2199L8.8759 15.5787C8.87596 15.5787 8.87584 15.5787 8.8759 15.5787ZM7.03076 15.7289C7.03076 14.4044 8.42043 13.5673 9.58956 14.1519L14.8707 16.7968C15.7888 17.262 16.3807 18.2062 16.3807 19.2442V24.2336C16.3807 25.5581 14.991 26.3952 13.8219 25.8107L8.54415 23.1674L8.54083 23.1657C7.62267 22.7005 7.03076 21.7563 7.03076 20.7183V15.7289ZM23.5128 14.1519C24.682 13.5673 26.0716 14.4044 26.0716 15.7289V20.7183C26.0716 21.7563 25.4797 22.7005 24.5616 23.1657L24.5583 23.1674L19.281 25.8104C18.1118 26.395 16.7217 25.5581 16.7217 24.2336V19.2442C16.7217 18.2062 17.3136 17.262 18.2318 16.7968L18.2351 16.7951L23.5128 14.1519ZM24.2263 15.5788L18.9528 18.2199C18.9523 18.2201 18.9518 18.2204 18.9514 18.2206C18.5619 18.4186 18.3171 18.8173 18.3171 19.2442V24.2336C18.3171 24.357 18.4448 24.4444 18.5666 24.3839C18.5664 24.384 18.5667 24.3839 18.5666 24.3839L23.8405 21.7426C23.841 21.7423 23.8415 21.7421 23.8421 21.7418C24.2314 21.5438 24.4763 21.1452 24.4763 20.7183V15.7289C24.4763 15.6054 24.3482 15.5179 24.2263 15.5788Z" fill="#352E40"/>
<defs>
<linearGradient id="paint0_linear_0_1083" x1="0.223034" y1="-1.25935" x2="42.4274" y2="13.2648" gradientUnits="userSpaceOnUse">
<stop stop-color="#D4E0DF"/>
<stop offset="0.5" stop-color="#E0CECD"/>
<stop offset="1" stop-color="#EDE3FF"/>
</linearGradient>
</defs>
</svg>
