<svg width="24" height="24" viewBox="0 0 24 24" fill="none" xmlns="http://www.w3.org/2000/svg">
<path d="M19.8071 24V18.84C20.9471 17.8 21.8321 16.585 22.4621 15.195C23.0921 13.805 23.4071 12.34 23.4071 10.8C23.4071 7.8 22.3571 5.25 20.2571 3.15C18.1571 1.05 15.6071 0 12.6071 0C10.1071 0 7.89211 0.735 5.9621 2.205C4.0321 3.675 2.77711 5.59 2.19711 7.95L0.637106 14.1C0.537106 14.48 0.607105 14.825 0.847105 15.135C1.0871 15.445 1.4071 15.6 1.8071 15.6H4.20711V19.2C4.20711 19.86 4.4421 20.425 4.91211 20.895C5.3821 21.365 5.94711 21.6 6.60711 21.6H9.0071V24H11.4071V19.2H6.60711V13.2H3.36711L4.5071 8.55C4.9671 6.73 5.94711 5.25 7.4471 4.11C8.9471 2.97 10.6671 2.4 12.6071 2.4C14.9271 2.4 16.9071 3.21 18.5471 4.83C20.1871 6.45 21.0071 8.42 21.0071 10.74C21.0071 11.94 20.7621 13.08 20.2721 14.16C19.7821 15.24 19.0871 16.2 18.1871 17.04L17.4071 17.76V24H19.8071ZM13.8071 15.6H11.4071L11.2271 14.1C11.0671 14.04 10.9221 13.97 10.7921 13.89C10.6621 13.81 10.5471 13.72 10.4471 13.62L9.0671 14.22L7.8671 12.18L9.0671 11.28C9.0271 11.12 9.0071 10.96 9.0071 10.8C9.0071 10.64 9.0271 10.48 9.0671 10.32L7.8671 9.42L9.0671 7.38L10.4471 7.98C10.5471 7.88 10.6621 7.79 10.7921 7.71C10.9221 7.63 11.0671 7.56 11.2271 7.5L11.4071 6H13.8071L13.9871 7.5C14.1471 7.56 14.2921 7.63 14.4221 7.71C14.5521 7.79 14.6671 7.88 14.7671 7.98L16.1471 7.38L17.3471 9.42L16.1471 10.32C16.1871 10.48 16.2071 10.64 16.2071 10.8C16.2071 10.96 16.1871 11.12 16.1471 11.28L17.3471 12.18L16.1471 14.22L14.7671 13.62C14.6671 13.72 14.5521 13.81 14.4221 13.89C14.2921 13.97 14.1471 14.04 13.9871 14.1L13.8071 15.6ZM12.6071 12.6C13.1071 12.6 13.5321 12.425 13.8821 12.075C14.2321 11.725 14.4071 11.3 14.4071 10.8C14.4071 10.3 14.2321 9.875 13.8821 9.525C13.5321 9.175 13.1071 9 12.6071 9C12.1071 9 11.6821 9.175 11.3321 9.525C10.9821 9.875 10.8071 10.3 10.8071 10.8C10.8071 11.3 10.9821 11.725 11.3321 12.075C11.6821 12.425 12.1071 12.6 12.6071 12.6Z" fill="#352E40"/>
</svg>
