<svg width="28" height="28" viewBox="0 0 28 28" fill="none" xmlns="http://www.w3.org/2000/svg">
<g clip-path="url(#clip0_0_1672)">
<path fill-rule="evenodd" clip-rule="evenodd" d="M14 4.4C8.69807 4.4 4.4 8.69807 4.4 14C4.4 19.3019 8.69807 23.6 14 23.6C19.3019 23.6 23.6 19.3019 23.6 14C23.6 8.69807 19.3019 4.4 14 4.4ZM2 14C2 7.37258 7.37258 2 14 2C20.6274 2 26 7.37258 26 14C26 20.6274 20.6274 26 14 26C7.37258 26 2 20.6274 2 14Z" fill="#352E40"/>
<path fill-rule="evenodd" clip-rule="evenodd" d="M9.19995 11.6C9.19995 10.9373 9.73721 10.4 10.4 10.4H10.412C11.0747 10.4 11.612 10.9373 11.612 11.6C11.612 12.2628 11.0747 12.8 10.412 12.8H10.4C9.73721 12.8 9.19995 12.2628 9.19995 11.6Z" fill="#352E40"/>
<path fill-rule="evenodd" clip-rule="evenodd" d="M16.4 11.6C16.4 10.9373 16.9373 10.4 17.6 10.4H17.612C18.2748 10.4 18.812 10.9373 18.812 11.6C18.812 12.2628 18.2748 12.8 17.612 12.8H17.6C16.9373 12.8 16.4 12.2628 16.4 11.6Z" fill="#352E40"/>
<path fill-rule="evenodd" clip-rule="evenodd" d="M10.7515 15.5515C11.2201 15.0829 11.9799 15.0829 12.4485 15.5515L14 17.103L15.5515 15.5515C16.0201 15.0829 16.7799 15.0829 17.2485 15.5515L19.6485 17.9515C20.1172 18.4201 20.1172 19.1799 19.6485 19.6485C19.1799 20.1172 18.4201 20.1172 17.9515 19.6485L16.4 18.0971L14.8485 19.6485C14.3799 20.1172 13.6201 20.1172 13.1515 19.6485L11.6 18.0971L10.0485 19.6485C9.5799 20.1172 8.8201 20.1172 8.35147 19.6485C7.88284 19.1799 7.88284 18.4201 8.35147 17.9515L10.7515 15.5515Z" fill="#352E40"/>
</g>
<defs>
<clipPath id="clip0_0_1672">
<rect width="28" height="28" fill="white"/>
</clipPath>
</defs>
</svg>
