<svg width="22" height="25" viewBox="0 0 22 25" fill="none" xmlns="http://www.w3.org/2000/svg">
<path d="M20.778 5.06241C17.0988 3.83601 12.6217 1.52238 11.6725 0.557581C11.4493 0.331981 11.1444 0.202412 10.8264 0.200012C10.4976 0.207212 10.2013 0.322369 9.97566 0.545569C8.82966 1.67477 5.34483 3.93797 0.873633 5.20157C0.356433 5.34678 0 5.81962 0 6.35602C0 16.3868 1.56722 21.6093 10.4712 24.1545C10.5792 24.1845 10.6908 24.2 10.8012 24.2C10.9116 24.2 11.0232 24.1845 11.1312 24.1545C20.0328 21.6105 21.6 16.3376 21.6 6.20001C21.5988 5.68281 21.2688 5.22561 20.778 5.06241ZM10.8 21.7496C3.9072 19.682 2.48642 16.0449 2.40242 7.24767C6.16442 6.05607 9.19566 4.26081 10.8445 2.96241C12.7261 4.28721 16.3392 6.01159 19.194 7.05079C19.116 15.992 17.7048 19.6772 10.8 21.7496Z" fill="url(#paint0_radial_0_977)"/>
<defs>
<radialGradient id="paint0_radial_0_977" cx="0" cy="0" r="1" gradientUnits="userSpaceOnUse" gradientTransform="translate(10.8002 12.2004) scale(14.2252 9.50638)">
<stop stop-color="#F6BEB2"/>
<stop offset="0.1308" stop-color="#F1BAB0"/>
<stop offset="0.2912" stop-color="#E2AFAA"/>
<stop offset="0.4671" stop-color="#C99CA0"/>
<stop offset="0.6541" stop-color="#A68193"/>
<stop offset="0.8478" stop-color="#7A6082"/>
<stop offset="1" stop-color="#524172"/>
</radialGradient>
</defs>
</svg>
