<svg width="280" height="161" viewBox="0 0 280 161" fill="none" xmlns="http://www.w3.org/2000/svg">
<g clip-path="url(#clip0_266_709)">
<rect opacity="0.3" y="0.5" width="280" height="160" fill="#A69FB0"/>
<path opacity="0.2" d="M0 -0.5V7.5" stroke="#352E40"/>
<path opacity="0.2" d="M14 -0.5V11.5" stroke="#352E40"/>
<path opacity="0.2" d="M28 -0.5V7.5" stroke="#352E40"/>
<path opacity="0.2" d="M42 -0.5V7.5" stroke="#352E40"/>
<path opacity="0.2" d="M56 -0.5V7.5" stroke="#352E40"/>
<path opacity="0.2" d="M70 -0.5V7.5" stroke="#352E40"/>
<path opacity="0.2" d="M84 -0.5V7.5" stroke="#352E40"/>
<path opacity="0.2" d="M98 -0.5V7.5" stroke="#352E40"/>
<path opacity="0.2" d="M112 -0.5V7.5" stroke="#352E40"/>
<path opacity="0.2" d="M126 -0.5V7.5" stroke="#352E40"/>
<path opacity="0.2" d="M140 -0.5V7.5" stroke="#352E40"/>
<path opacity="0.2" d="M154 -0.5V7.5" stroke="#352E40"/>
<path opacity="0.2" d="M168 -0.5V7.5" stroke="#352E40"/>
<path opacity="0.2" d="M182 -0.5V7.5" stroke="#352E40"/>
<path opacity="0.2" d="M196 -0.5V7.5" stroke="#352E40"/>
<path opacity="0.2" d="M210 -0.5V7.5" stroke="#352E40"/>
<path opacity="0.2" d="M224 -0.5V7.5" stroke="#352E40"/>
<path opacity="0.2" d="M238 -0.5V7.5" stroke="#352E40"/>
<path opacity="0.2" d="M252 -0.5V7.5" stroke="#352E40"/>
<path opacity="0.2" d="M266 -0.5V7.5" stroke="#352E40"/>
<path opacity="0.2" d="M280 -0.5V7.5" stroke="#352E40"/>
</g>
<defs>
<clipPath id="clip0_266_709">
<rect width="280" height="160" fill="white" transform="translate(0 0.5)"/>
</clipPath>
</defs>
</svg>
