<svg width="100" height="100" viewBox="0 0 100 100" fill="none" xmlns="http://www.w3.org/2000/svg">
<circle cx="50" cy="50" r="50" fill="#A69FB0"/>
<g clip-path="url(#clip0_266_815)">
<path d="M45.9998 51.3334C48.9454 51.3334 51.3332 48.9456 51.3332 46.0001C51.3332 43.0546 48.9454 40.6667 45.9998 40.6667C43.0543 40.6667 40.6665 43.0546 40.6665 46.0001C40.6665 48.9456 43.0543 51.3334 45.9998 51.3334Z" fill="#352E40"/>
<path d="M46.0002 54.0001C42.4402 54.0001 35.3335 55.7867 35.3335 59.3334V62.0001H56.6668V59.3334C56.6668 55.7867 49.5602 54.0001 46.0002 54.0001ZM56.3468 41.1467L54.1068 43.4001C55.2268 44.9734 55.2268 47.0134 54.1068 48.5867L56.3468 50.8401C59.0402 48.1467 59.0402 44.0801 56.3468 41.1467ZM60.7602 36.6667L58.5868 38.8401C62.2802 42.8667 62.2802 48.9201 58.5868 53.1601L60.7602 55.3334C65.9602 50.1467 65.9735 42.0667 60.7602 36.6667Z" fill="#352E40"/>
</g>
<defs>
<clipPath id="clip0_266_815">
<rect width="32" height="32" fill="white" transform="translate(34 34)"/>
</clipPath>
</defs>
</svg>
