<svg width="35" height="34" viewBox="0 0 35 34" fill="none" xmlns="http://www.w3.org/2000/svg">
<path d="M2.0792 15.384L8.51132 9.58502L0.273223 6.91412L2.0792 15.384ZM2.75 17.0019C2.75 16.5877 2.41421 16.2519 2 16.2519C1.58579 16.2519 1.25 16.5877 1.25 17.0019H2.75ZM4.80923 9.34006C7.45244 4.79923 12.3701 1.75 17.9981 1.75V0.25C11.8144 0.25 6.41362 3.60217 3.51286 8.58545L4.80923 9.34006ZM17.9981 1.75C26.4203 1.75 33.25 8.57614 33.25 17.0019H34.75C34.75 7.74749 27.2485 0.25 17.9981 0.25V1.75ZM33.25 17.0019C33.25 25.4237 26.4204 32.25 17.9981 32.25V33.75C27.2484 33.75 34.75 26.2526 34.75 17.0019H33.25ZM17.9981 32.25C9.57603 32.25 2.75 25.424 2.75 17.0019H1.25C1.25 26.2524 8.7476 33.75 17.9981 33.75V32.25Z" fill="#352E40"/>
<path d="M22.0006 14.9392V13C22.0006 10.7944 20.2062 9 18.0006 9C15.795 9 14.0006 10.7944 14.0006 13V14.9392C12.5902 15.5584 11.6006 16.964 11.6006 18.6V21C11.6006 23.2056 13.395 25 15.6006 25H20.4006C22.6062 25 24.4006 23.2056 24.4006 21V18.6C24.4006 16.964 23.411 15.5584 22.0006 14.9392ZM15.6006 13C15.6006 11.6768 16.6774 10.6 18.0006 10.6C19.3238 10.6 20.4006 11.6768 20.4006 13V14.6H15.6006V13ZM22.8006 21C22.8006 22.3232 21.7238 23.4 20.4006 23.4H15.6006C14.2774 23.4 13.2006 22.3232 13.2006 21V18.6C13.2006 17.2768 14.2774 16.2 15.6006 16.2H20.4006C21.7238 16.2 22.8006 17.2768 22.8006 18.6V21ZM18.8006 19.4V20.2C18.8006 20.6424 18.4422 21 18.0006 21C17.559 21 17.2006 20.6424 17.2006 20.2V19.4C17.2006 18.9576 17.559 18.6 18.0006 18.6C18.4422 18.6 18.8006 18.9576 18.8006 19.4Z" fill="url(#paint0_radial_0_491)"/>
<defs>
<radialGradient id="paint0_radial_0_491" cx="0" cy="0" r="1" gradientUnits="userSpaceOnUse" gradientTransform="translate(18.0007 17.0002) scale(8.42975 6.33759)">
<stop stop-color="#F6BEB2"/>
<stop offset="0.1308" stop-color="#F1BAB0"/>
<stop offset="0.2912" stop-color="#E2AFAA"/>
<stop offset="0.4671" stop-color="#C99CA0"/>
<stop offset="0.6541" stop-color="#A68193"/>
<stop offset="0.8478" stop-color="#7A6082"/>
<stop offset="1" stop-color="#524172"/>
</radialGradient>
</defs>
</svg>
