<svg width="32" height="32" viewBox="0 0 32 32" fill="none" xmlns="http://www.w3.org/2000/svg">
<circle cx="16" cy="16" r="16" fill="#352E40"/>
<path d="M22.9267 9.07369C22.2347 8.38165 21.3146 8 20.3361 8C19.3577 8 18.4377 8.38165 17.7456 9.07369L9.3188 17.5005C8.96278 17.8565 8.73076 18.3069 8.64835 18.803L8.01634 22.5935C7.95234 22.9775 8.07876 23.372 8.35317 23.6464C8.58119 23.8744 8.89078 24 9.20839 24C9.27479 24 9.34039 23.9944 9.40679 23.9832L13.1974 23.3511C13.6934 23.2687 14.1438 23.0367 14.4999 22.6807L22.9267 14.2539C23.6187 13.5619 24.0003 12.641 24.0003 11.6634C24.0003 10.6849 23.6187 9.76572 22.9267 9.07369ZM13.3686 21.5511C13.2502 21.6695 13.0998 21.7471 12.935 21.7743L9.68522 22.3159L10.2268 19.0662C10.2541 18.9014 10.3316 18.751 10.4501 18.6326L16.7752 12.3074L19.6937 15.2259L13.3686 21.5511ZM21.7954 13.1235L20.825 14.0939L17.9064 11.1754L18.8769 10.2049C19.2665 9.81527 19.7857 9.60008 20.3361 9.60008C20.8874 9.60008 21.4058 9.81527 21.7954 10.2049C22.185 10.5945 22.4002 11.1129 22.4002 11.6641C22.4002 12.2154 22.185 12.7339 21.7954 13.1235Z" fill="url(#paint0_linear_0_547)"/>
<defs>
<linearGradient id="paint0_linear_0_547" x1="7.83588" y1="7.12032" x2="28.9384" y2="14.3827" gradientUnits="userSpaceOnUse">
<stop stop-color="#D4E0DF"/>
<stop offset="0.5" stop-color="#E0CECD"/>
<stop offset="1" stop-color="#EDE3FF"/>
</linearGradient>
</defs>
</svg>
