<svg width="32" height="32" viewBox="0 0 32 32" fill="none" xmlns="http://www.w3.org/2000/svg">
<circle cx="16" cy="16" r="16" fill="url(#paint0_linear_0_326)"/>
<path d="M16 26C13.3478 26 10.8043 24.9464 8.92893 23.0711C7.05357 21.1957 6 18.6522 6 16C6 13.3478 7.05357 10.8043 8.92893 8.92893C10.8043 7.05357 13.3478 6 16 6C18.6522 6 21.1957 7.05357 23.0711 8.92893C24.9464 10.8043 26 13.3478 26 16C26 18.6522 24.9464 21.1957 23.0711 23.0711C21.1957 24.9464 18.6522 26 16 26ZM16 24C18.1217 24 20.1566 23.1571 21.6569 21.6569C23.1571 20.1566 24 18.1217 24 16C24 13.8783 23.1571 11.8434 21.6569 10.3431C20.1566 8.84285 18.1217 8 16 8C13.8783 8 11.8434 8.84285 10.3431 10.3431C8.84285 11.8434 8 13.8783 8 16C8 18.1217 8.84285 20.1566 10.3431 21.6569C11.8434 23.1571 13.8783 24 16 24ZM12.46 19.46C12.9245 18.9944 13.4762 18.6249 14.0837 18.3729C14.6911 18.1208 15.3423 17.9911 16 17.9911C16.6577 17.9911 17.3089 18.1208 17.9163 18.3729C18.5238 18.6249 19.0755 18.9944 19.54 19.46C19.7283 19.6483 19.8341 19.9037 19.8341 20.17C19.8341 20.4363 19.7283 20.6917 19.54 20.88C19.4468 20.9732 19.3361 21.0472 19.2142 21.0977C19.0924 21.1481 18.9619 21.1741 18.83 21.1741C18.5637 21.1741 18.3083 21.0683 18.12 20.88C17.5575 20.3182 16.795 20.0026 16 20.0026C15.205 20.0026 14.4425 20.3182 13.88 20.88C13.7868 20.9732 13.6761 21.0472 13.5542 21.0977C13.4324 21.1481 13.3019 21.1741 13.17 21.1741C13.0381 21.1741 12.9076 21.1481 12.7858 21.0977C12.6639 21.0472 12.5532 20.9732 12.46 20.88C12.3668 20.7868 12.2928 20.6761 12.2423 20.5542C12.1919 20.4324 12.1659 20.3019 12.1659 20.17C12.1659 20.0381 12.1919 19.9076 12.2423 19.7858C12.2928 19.6639 12.3668 19.5532 12.46 19.46ZM13 15C12.7348 15 12.4804 14.8946 12.2929 14.7071C12.1054 14.5196 12 14.2652 12 14C12 13.7348 12.1054 13.4804 12.2929 13.2929C12.4804 13.1054 12.7348 13 13 13C13.2652 13 13.5196 13.1054 13.7071 13.2929C13.8946 13.4804 14 13.7348 14 14C14 14.2652 13.8946 14.5196 13.7071 14.7071C13.5196 14.8946 13.2652 15 13 15ZM19 15C18.7348 15 18.4804 14.8946 18.2929 14.7071C18.1054 14.5196 18 14.2652 18 14C18 13.7348 18.1054 13.4804 18.2929 13.2929C18.4804 13.1054 18.7348 13 19 13C19.2652 13 19.5196 13.1054 19.7071 13.2929C19.8946 13.4804 20 13.7348 20 14C20 14.2652 19.8946 14.5196 19.7071 14.7071C19.5196 14.8946 19.2652 15 19 15Z" fill="#352E40"/>
<defs>
<linearGradient id="paint0_linear_0_326" x1="-0.328235" y1="-1.75935" x2="41.8761" y2="12.7648" gradientUnits="userSpaceOnUse">
<stop stop-color="#D4E0DF"/>
<stop offset="0.5" stop-color="#E0CECD"/>
<stop offset="1" stop-color="#EDE3FF"/>
</linearGradient>
</defs>
</svg>
