<svg width="33" height="33" viewBox="0 0 33 33" fill="none" xmlns="http://www.w3.org/2000/svg">
<rect x="0.55127" y="0.5" width="32" height="32" rx="8" fill="url(#paint0_linear_0_1074)"/>
<path fill-rule="evenodd" clip-rule="evenodd" d="M15.5999 9.76095C15.2754 10.0043 14.936 10.3899 14.6137 10.9709L9.43245 20.2904C9.09284 20.9029 8.95972 21.4214 8.9544 21.8419L15.6006 17.1881L15.5999 9.76095ZM17.5024 9.75959L17.5031 17.1881L24.1482 21.8411C24.1418 21.4223 24.0088 20.9071 23.672 20.2996M23.672 20.2996L18.4907 10.9715C18.1679 10.3894 17.8274 10.0029 17.5024 9.75959M23.0413 23.3884L16.5519 18.8445L10.0694 23.3836C10.4065 23.51 10.835 23.589 11.3708 23.589H16.5521C16.5955 23.589 16.6383 23.5919 16.6802 23.5976H21.7334C22.2724 23.5976 22.703 23.517 23.0413 23.3884ZM16.424 25.4914H11.3708C9.67836 25.4914 8.24244 24.8786 7.51409 23.6377C6.78627 22.3978 6.9496 20.8451 7.76864 19.3679L12.95 10.0483C12.9498 10.0486 12.9501 10.0481 12.95 10.0483C13.8042 8.50824 15.0719 7.5 16.5521 7.5C18.0325 7.5 19.2999 8.50779 20.1542 10.0483L25.3351 19.3758C26.1549 20.8543 26.3154 22.4078 25.5864 23.647C24.8573 24.8865 23.4225 25.5 21.7334 25.5H16.5521C16.5086 25.5 16.4659 25.4971 16.424 25.4914Z" fill="#352E40"/>
<defs>
<linearGradient id="paint0_linear_0_1074" x1="0.223034" y1="-1.25935" x2="42.4274" y2="13.2648" gradientUnits="userSpaceOnUse">
<stop stop-color="#D4E0DF"/>
<stop offset="0.5" stop-color="#E0CECD"/>
<stop offset="1" stop-color="#EDE3FF"/>
</linearGradient>
</defs>
</svg>
