<svg width="32" height="32" viewBox="0 0 32 32" fill="none" xmlns="http://www.w3.org/2000/svg">
<circle cx="16" cy="16" r="16" fill="#352E40"/>
<path d="M15.9998 16.8C18.4262 16.8 20.3998 14.8256 20.3998 12.4C20.3998 9.97439 18.4262 8 15.9998 8C13.5734 8 11.5998 9.97439 11.5998 12.4C11.5998 14.8256 13.5734 16.8 15.9998 16.8ZM15.9998 9.6C17.5438 9.6 18.7998 10.856 18.7998 12.4C18.7998 13.944 17.5438 15.2 15.9998 15.2C14.4558 15.2 13.1998 13.944 13.1998 12.4C13.1998 10.856 14.4558 9.6 15.9998 9.6ZM22.3998 20.7736V21.5824C22.3998 22.3792 22.1086 23.1432 21.5798 23.7336C21.4214 23.9103 21.203 24 20.983 24C20.7934 24 20.6022 23.9328 20.4494 23.796C20.1198 23.5016 20.0926 22.9952 20.387 22.6664C20.6526 22.3696 20.799 21.984 20.799 21.5824V20.7736C20.799 19.6544 20.0574 18.6864 18.9966 18.42C18.843 18.3816 18.679 18.4007 18.5478 18.4759C16.963 19.3575 15.0286 19.3527 13.459 18.4807C13.3206 18.4015 13.1574 18.3816 13.0038 18.42C11.9407 18.6864 11.1998 19.6544 11.1998 20.7736V21.5824C11.1998 21.9848 11.3463 22.3696 11.6119 22.6664C11.9063 22.9952 11.8783 23.5016 11.5495 23.796C11.2199 24.0912 10.7143 24.0623 10.4199 23.7336C9.89107 23.1432 9.59985 22.3792 9.59985 21.5824V20.7736C9.59985 18.92 10.8391 17.3135 12.6135 16.8679C13.1631 16.7279 13.7583 16.8088 14.2447 17.0864C15.3239 17.6848 16.6686 17.6896 17.763 17.0816C18.2422 16.8072 18.8374 16.7272 19.3878 16.8672C21.1606 17.3136 22.3998 18.9192 22.3998 20.7736Z" fill="url(#paint0_linear_0_538)"/>
<defs>
<linearGradient id="paint0_linear_0_538" x1="9.46856" y1="7.12032" x2="27.0193" y2="11.9522" gradientUnits="userSpaceOnUse">
<stop stop-color="#D4E0DF"/>
<stop offset="0.5" stop-color="#E0CECD"/>
<stop offset="1" stop-color="#EDE3FF"/>
</linearGradient>
</defs>
</svg>
