<svg width="24" height="22" viewBox="0 0 24 22" fill="none" xmlns="http://www.w3.org/2000/svg">
<path d="M7.8 0.800049C5.904 0.800049 4.31643 2.07085 3.79563 3.80005H1.2C0.5376 3.80005 0 4.33645 0 5.00005C0 5.66365 0.5376 6.20005 1.2 6.20005H3.79563C4.31643 7.92925 5.904 9.20005 7.8 9.20005C10.116 9.20005 12 7.31605 12 5.00005C12 2.68405 10.116 0.800049 7.8 0.800049ZM7.8 6.80005C6.8076 6.80005 6 5.99245 6 5.00005C6 4.00765 6.8076 3.20005 7.8 3.20005C8.7924 3.20005 9.6 4.00765 9.6 5.00005C9.6 5.99245 8.7924 6.80005 7.8 6.80005ZM14.4 5.00005C14.4 4.33645 14.9376 3.80005 15.6 3.80005H22.8C23.4624 3.80005 24 4.33645 24 5.00005C24 5.66365 23.4624 6.20005 22.8 6.20005H15.6C14.9376 6.20005 14.4 5.66365 14.4 5.00005ZM22.8 15.8H20.2044C19.6836 14.0708 18.096 12.8 16.2 12.8C13.884 12.8 12 14.684 12 17C12 19.316 13.884 21.2 16.2 21.2C18.096 21.2 19.6836 19.9292 20.2044 18.2H22.8C23.4624 18.2 24 17.6636 24 17C24 16.3364 23.4624 15.8 22.8 15.8ZM16.2 18.8C15.2076 18.8 14.4 17.9924 14.4 17C14.4 16.0076 15.2076 15.2 16.2 15.2C17.1924 15.2 18 16.0076 18 17C18 17.9924 17.1924 18.8 16.2 18.8ZM9.6 17C9.6 17.6636 9.0624 18.2 8.4 18.2H1.2C0.5376 18.2 0 17.6636 0 17C0 16.3364 0.5376 15.8 1.2 15.8H8.4C9.0624 15.8 9.6 16.3364 9.6 17Z" fill="#352E40"/>
</svg>
