<svg width="16" height="17" viewBox="0 0 16 17" fill="none" xmlns="http://www.w3.org/2000/svg">
<path fill-rule="evenodd" clip-rule="evenodd" d="M8 1.9186C4.46538 1.9186 1.6 4.78398 1.6 8.3186C1.6 11.8532 4.46538 14.7186 8 14.7186C11.5346 14.7186 14.4 11.8532 14.4 8.3186C14.4 4.78398 11.5346 1.9186 8 1.9186ZM0 8.3186C0 3.90033 3.58172 0.318604 8 0.318604C12.4183 0.318604 16 3.90033 16 8.3186C16 12.7369 12.4183 16.3186 8 16.3186C3.58172 16.3186 0 12.7369 0 8.3186Z" fill="#352E40"/>
<path fill-rule="evenodd" clip-rule="evenodd" d="M4.80017 6.71861C4.80017 6.27678 5.15834 5.91861 5.60017 5.91861H5.60817C6.05 5.91861 6.40817 6.27678 6.40817 6.71861C6.40817 7.16044 6.05 7.51861 5.60817 7.51861H5.60017C5.15834 7.51861 4.80017 7.16044 4.80017 6.71861Z" fill="#352E40"/>
<path fill-rule="evenodd" clip-rule="evenodd" d="M9.59998 6.71861C9.59998 6.27678 9.95815 5.91861 10.4 5.91861H10.408C10.8498 5.91861 11.208 6.27678 11.208 6.71861C11.208 7.16044 10.8498 7.51861 10.408 7.51861H10.4C9.95815 7.51861 9.59998 7.16044 9.59998 6.71861Z" fill="#352E40"/>
<path d="M11.7495 10.3122C9.85622 11.2217 8.81677 10.8133 7.68452 10.3864C6.66364 9.97805 5.58707 9.5697 3.95366 10.3122C3.78661 10.3864 3.71236 10.5906 3.78661 10.7576C3.86086 10.9247 4.06503 10.9989 4.23209 10.9247C5.60564 10.3122 6.45946 10.6277 7.46178 11.0175C8.11144 11.2588 8.79821 11.5372 9.6706 11.5372C10.3388 11.5372 11.1184 11.3702 12.0465 10.9247C12.2135 10.8504 12.2878 10.6463 12.2135 10.4792C12.1207 10.2936 11.9351 10.2379 11.7495 10.3122Z" fill="#352E40"/>
<path fill-rule="evenodd" clip-rule="evenodd" d="M7.73884 10.2466L7.76341 10.2558C8.32279 10.4668 8.83853 10.6613 9.44142 10.7008C10.0492 10.7405 10.7567 10.6227 11.6845 10.177L11.6937 10.1726C11.8144 10.1243 11.9446 10.1151 12.065 10.1563C12.1867 10.1981 12.2853 10.2874 12.3477 10.4121L12.3507 10.4182C12.457 10.6573 12.3537 10.9508 12.1096 11.0608C11.1656 11.5136 10.3645 11.6872 9.6706 11.6872C8.82486 11.6872 8.14684 11.4337 7.53511 11.205C7.49296 11.1892 7.45112 11.1735 7.40956 11.1581L7.40741 11.1573C6.90404 10.9616 6.45831 10.7932 5.97122 10.7445C5.48938 10.6963 4.95864 10.7649 4.29318 11.0617C4.05342 11.1682 3.75875 11.0643 3.64954 10.8186C3.54307 10.579 3.64684 10.2848 3.8921 10.1754C4.73127 9.79402 5.43511 9.70537 6.06377 9.76848C6.68779 9.83112 7.22985 10.043 7.73884 10.2466ZM6.03381 10.067C5.46074 10.0095 4.80975 10.0878 4.01573 10.4487L4.01459 10.4492C3.9262 10.4885 3.88175 10.6024 3.92368 10.6967C3.96296 10.7851 4.07682 10.8296 4.17117 10.7876C4.87925 10.4718 5.46204 10.3921 6.00107 10.446C6.53448 10.4993 7.01651 10.6834 7.51508 10.8773C7.55444 10.8919 7.59382 10.9066 7.63326 10.9213C8.24956 11.1515 8.88084 11.3872 9.6706 11.3872C10.3127 11.3872 11.0702 11.2269 11.9816 10.7895L11.9855 10.7876C12.073 10.7487 12.1174 10.6369 12.0777 10.5431C12.0475 10.4843 12.0076 10.4538 11.9677 10.4401C11.9265 10.426 11.8725 10.4255 11.8095 10.4498C10.8464 10.9116 10.089 11.0438 9.42182 11.0001C8.77389 10.9577 8.22158 10.7493 7.67219 10.5421C7.65866 10.537 7.64513 10.5319 7.6316 10.5268L7.6288 10.5257C7.11731 10.3211 6.61108 10.1249 6.03381 10.067Z" fill="#352E40"/>
</svg>
