<svg width="17" height="20" viewBox="0 0 17 20" fill="none" xmlns="http://www.w3.org/2000/svg">
<path d="M8.05125 11C11.0842 11 13.5512 8.53198 13.5512 5.49998C13.5512 2.46799 11.0842 0 8.05125 0C5.01826 0 2.55126 2.46799 2.55126 5.49998C2.55126 8.53198 5.01826 11 8.05125 11ZM8.05125 1.99999C9.98124 1.99999 11.5512 3.56999 11.5512 5.49998C11.5512 7.42998 9.98124 8.99998 8.05125 8.99998C6.12125 8.99998 4.55126 7.42998 4.55126 5.49998C4.55126 3.56999 6.12125 1.99999 8.05125 1.99999ZM16.0512 15.967V16.978C16.0512 17.974 15.6872 18.9289 15.0262 19.6669C14.8282 19.8879 14.5552 19.9999 14.2802 19.9999C14.0432 19.9999 13.8042 19.9159 13.6132 19.7449C13.2012 19.3769 13.1672 18.744 13.5352 18.333C13.8672 17.962 14.0503 17.48 14.0503 16.978V15.967C14.0503 14.568 13.1232 13.358 11.7972 13.025C11.6052 12.977 11.4002 13.0009 11.2362 13.0949C9.25524 14.1969 6.83723 14.1909 4.87523 13.1009C4.70223 13.0019 4.49826 12.977 4.30626 13.025C2.97727 13.358 2.05126 14.568 2.05126 15.967V16.978C2.05126 17.481 2.23428 17.962 2.56628 18.333C2.93428 18.744 2.89927 19.3769 2.48827 19.7449C2.07628 20.1139 1.44429 20.0779 1.07629 19.6669C0.415293 18.9289 0.0512695 17.974 0.0512695 16.978V15.967C0.0512695 13.65 1.60029 11.6419 3.81829 11.0849C4.50529 10.9099 5.24929 11.011 5.85728 11.358C7.20628 12.106 8.88723 12.112 10.2552 11.352C10.8542 11.009 11.5982 10.909 12.2862 11.084C14.5022 11.642 16.0512 13.649 16.0512 15.967Z" fill="#A69FB0"/>
</svg>
