<svg width="33" height="32" viewBox="0 0 33 32" fill="none" xmlns="http://www.w3.org/2000/svg">
<circle cx="16.1807" cy="16" r="16" fill="#352E40"/>
<path d="M16.1808 19.2C18.3864 19.2 20.1808 17.4056 20.1808 15.2V12C20.1808 9.7944 18.3864 8 16.1808 8C13.9752 8 12.1808 9.7944 12.1808 12V15.2C12.1808 17.4056 13.9752 19.2 16.1808 19.2ZM13.7808 12C13.7808 10.6768 14.8576 9.6 16.1808 9.6C17.504 9.6 18.5808 10.6768 18.5808 12V15.2C18.5808 16.5232 17.504 17.6 16.1808 17.6C14.8576 17.6 13.7808 16.5232 13.7808 15.2V12ZM16.9808 21.5447V22.4H19.3808C19.8224 22.4 20.1808 22.7576 20.1808 23.2C20.1808 23.6424 19.8224 24 19.3808 24H12.9808C12.5392 24 12.1808 23.6424 12.1808 23.2C12.1808 22.7576 12.5392 22.4 12.9808 22.4H15.3808V21.5447C12.2288 21.1487 9.78076 18.4576 9.78076 15.2C9.78076 14.7576 10.1392 14.4 10.5808 14.4C11.0224 14.4 11.3808 14.7576 11.3808 15.2C11.3808 17.8472 13.5336 20 16.1808 20C18.828 20 20.9808 17.8472 20.9808 15.2C20.9808 14.7576 21.3392 14.4 21.7808 14.4C22.2224 14.4 22.5808 14.7576 22.5808 15.2C22.5808 18.4576 20.1328 21.1487 16.9808 21.5447Z" fill="url(#paint0_linear_0_2764)"/>
<defs>
<linearGradient id="paint0_linear_0_2764" x1="9.64947" y1="7.12032" x2="27.2002" y2="11.9522" gradientUnits="userSpaceOnUse">
<stop stop-color="#D4E0DF"/>
<stop offset="0.5" stop-color="#E0CECD"/>
<stop offset="1" stop-color="#EDE3FF"/>
</linearGradient>
</defs>
</svg>
