<svg width="48" height="48" viewBox="0 0 48 48" fill="none" xmlns="http://www.w3.org/2000/svg">
<circle cx="24" cy="24" r="24" fill="url(#paint0_linear_0_1568)"/>
<path d="M23.9999 28.8C27.3083 28.8 29.9999 26.1084 29.9999 22.8V18C29.9999 14.6916 27.3083 12 23.9999 12C20.6915 12 17.9999 14.6916 17.9999 18V22.8C17.9999 26.1084 20.6915 28.8 23.9999 28.8ZM20.3999 18C20.3999 16.0152 22.0151 14.4 23.9999 14.4C25.9847 14.4 27.5999 16.0152 27.5999 18V22.8C27.5999 24.7848 25.9847 26.4 23.9999 26.4C22.0151 26.4 20.3999 24.7848 20.3999 22.8V18ZM25.1999 32.3171V33.6H28.7999C29.4623 33.6 29.9999 34.1364 29.9999 34.8C29.9999 35.4636 29.4623 36 28.7999 36H19.1999C18.5375 36 17.9999 35.4636 17.9999 34.8C17.9999 34.1364 18.5375 33.6 19.1999 33.6H22.7999V32.3171C18.0719 31.7231 14.3999 27.6864 14.3999 22.8C14.3999 22.1364 14.9375 21.6 15.5999 21.6C16.2623 21.6 16.7999 22.1364 16.7999 22.8C16.7999 26.7708 20.0291 30 23.9999 30C27.9707 30 31.1999 26.7708 31.1999 22.8C31.1999 22.1364 31.7375 21.6 32.3999 21.6C33.0623 21.6 33.5999 22.1364 33.5999 22.8C33.5999 27.6864 29.9279 31.7231 25.1999 32.3171Z" fill="#352E40"/>
<defs>
<linearGradient id="paint0_linear_0_1568" x1="-0.492353" y1="-2.63903" x2="62.8142" y2="19.1472" gradientUnits="userSpaceOnUse">
<stop stop-color="#D4E0DF"/>
<stop offset="0.5" stop-color="#E0CECD"/>
<stop offset="1" stop-color="#EDE3FF"/>
</linearGradient>
</defs>
</svg>
