<svg width="20" height="20" viewBox="0 0 20 20" fill="none" xmlns="http://www.w3.org/2000/svg">
<rect width="20" height="20" rx="10" fill="url(#paint0_linear_0_1900)"/>
<path d="M12.5 5H7.5C6.1215 5 5 6.1215 5 7.5V10.5C5 11.8785 6.1215 13 7.5 13H9.5V14H8C7.724 14 7.5 14.2235 7.5 14.5C7.5 14.7765 7.724 15 8 15H12C12.276 15 12.5 14.7765 12.5 14.5C12.5 14.2235 12.276 14 12 14H10.5V13H12.5C13.8785 13 15 11.8785 15 10.5V7.5C15 6.1215 13.8785 5 12.5 5ZM14 10.5C14 11.327 13.327 12 12.5 12H7.5C6.673 12 6 11.327 6 10.5V7.5C6 6.673 6.673 6 7.5 6H12.5C13.327 6 14 6.673 14 7.5V10.5Z" fill="#352E40"/>
<defs>
<linearGradient id="paint0_linear_0_1900" x1="-0.205147" y1="-1.09959" x2="26.1726" y2="7.97799" gradientUnits="userSpaceOnUse">
<stop stop-color="#D4E0DF"/>
<stop offset="0.5" stop-color="#E0CECD"/>
<stop offset="1" stop-color="#EDE3FF"/>
</linearGradient>
</defs>
</svg>
